<svg width="64" height="64" viewBox="0 0 64 64" fill="none" xmlns="http://www.w3.org/2000/svg">
<path d="M30.4195 56.5523C29.3159 57.5123 27.6527 57.4082 26.6927 56.3046L17.5173 45.8319L22.6086 41.3749L30.83 53.0545C31.6166 54.147 31.4351 55.66 30.4195 56.5523Z" fill="white"/>
<path d="M18.1406 45.5666L12.6384 48.4023C11.8259 48.821 10.8355 48.5043 10.4168 47.6918L7.83596 42.6842C7.41721 41.8717 7.73393 40.8813 8.54645 40.4626L14.0574 37.6223L18.1494 45.562L18.1406 45.5666Z" fill="#03DAC5"/>
<path d="M47 42L41.7083 10.9198L40.8026 9.16233C40.4566 8.49112 39.5444 8.39118 39.0537 8.95709L19.7354 31.7228L26.2443 44.3521L28.9655 44.1233C28.9655 44.1233 36.7745 43.7836 41.7083 43C43.7854 42.6701 47 42 47 42Z" fill="white"/>
<path d="M56.3947 41.6403L35.6923 43.5067L31.1017 44.3084L34.6017 13.8084C34.9423 13.4099 41.1017 2.80837 45.9605 19.1704L56.9936 40.5782C57.2316 41.0399 56.9168 41.5942 56.3947 41.6403Z" fill="#03DAC5"/>
<path d="M26.2443 44.3521L17.4833 48.8674C16.1939 49.5319 14.6146 49.0269 13.9501 47.7375L9.84447 39.7713C9.17992 38.4818 9.68496 36.9026 10.9744 36.2381L19.7266 31.7273L26.2355 44.3567L26.2443 44.3521Z" fill="#03DAC5"/>
<path d="M26.3256 46.6352L24.8595 47.3908C24.2678 47.6957 24.1218 48.4752 24.5589 48.9764L26.9204 51.6715C27.2269 52.0277 27.7435 52.1191 28.1586 51.9052L29.5363 51.1951L26.3256 46.6352Z" fill="#03DAC5"/>
<path d="M57.5715 43.5647C56.4676 44.1336 55.1159 43.7013 54.5469 42.5974L37.5873 9.69045C37.0184 8.58649 37.4507 7.23477 38.5546 6.66581C39.6586 6.09685 41.0103 6.52913 41.5793 7.63309L58.5343 40.5312C59.1166 41.6394 58.6755 42.9957 57.5715 43.5647Z" fill="#03DAC5"/>
<path d="M12.2033 39.7069C12.3171 39.9277 12.5893 40.0221 12.8189 39.9038L19.3367 36.5446C19.5575 36.4308 19.6519 36.1586 19.5336 35.929C19.4198 35.7082 19.1476 35.6138 18.9179 35.7321L12.3913 39.0958C12.1705 39.2096 12.0895 39.4861 12.2033 39.7069Z" fill="black"/>
<path d="M20.4931 38.8101L13.9753 42.1692C13.7545 42.283 13.6601 42.5552 13.7784 42.7849C13.8968 43.0145 14.1644 43.1001 14.394 42.9817L20.9118 39.6226C21.1326 39.5088 21.2271 39.2366 21.1087 39.007C20.9904 38.7773 20.7139 38.6963 20.4931 38.8101Z" fill="black"/>
<path d="M22.0816 41.8923L15.5639 45.2515C15.3431 45.3653 15.2486 45.6375 15.367 45.8671C15.4853 46.0967 15.753 46.1823 15.9826 46.064L22.5004 42.7048C22.7212 42.5911 22.8156 42.3188 22.6973 42.0892C22.5789 41.8596 22.3024 41.7785 22.0816 41.8923Z" fill="black"/>
<path d="M47.7024 18.5163L41.9855 7.42372C41.3028 6.09897 39.67 5.5768 38.3452 6.25956C37.0205 6.94231 36.4983 8.57508 37.1811 9.89984L37.3631 10.2531L19.4466 31.3575L10.765 35.8318C9.38724 36.5419 8.7714 38.1447 9.25985 39.5696L8.33252 40.0475C7.30377 40.5889 6.89717 41.8603 7.42516 42.8848L10.006 47.8923C10.5385 48.9257 11.8099 49.3323 12.8432 48.7997L13.7794 48.3172C14.6565 49.5418 16.3192 49.9703 17.6969 49.2603L19.2425 48.4637L26.3584 56.5886C27.3139 57.6834 28.8722 57.931 30.0998 57.2983C30.3206 57.1845 30.5277 57.0442 30.7212 56.8774C31.9171 55.8363 32.1221 54.0652 31.2086 52.77L29.9107 50.9239L29.9062 50.9151L26.7045 46.3728L26.7 46.364L25.8001 45.0952L26.3742 44.7993L53.9674 42.4489L54.1495 42.8022C54.8322 44.127 56.465 44.6491 57.7897 43.9664C59.1145 43.2836 59.6366 41.6508 58.9539 40.3261L53.237 29.2335C52.1442 27.1347 51.3783 25.6488 50.1721 23.3084C48.9659 20.968 48.1667 19.1867 47.7024 18.5163ZM13.3387 47.5272L12.429 47.996C11.8373 48.301 11.1146 48.0699 10.8096 47.4781L8.22885 42.4706C7.92388 41.8788 8.155 41.1561 8.74673 40.8512L9.65639 40.3824L13.3387 47.5272ZM30.4641 53.299C31.1152 54.2153 30.9661 55.4658 30.1175 56.2049C29.2074 56.9982 27.8198 56.9085 27.0266 55.9983L20.0684 48.0492L24.9876 45.514L25.6615 46.4744L24.6547 46.9933C24.2484 47.2027 23.9642 47.5839 23.8808 48.0293C23.7974 48.4747 23.923 48.9353 24.2204 49.2738L26.5819 51.9689C27.0236 52.479 27.7674 52.621 28.368 52.3115L29.3924 51.7835L30.4641 53.299ZM28.8677 51.0256L27.9492 51.4989C27.7196 51.6173 27.4345 51.563 27.2544 51.3652L24.8929 48.6701C24.7802 48.5382 24.7336 48.361 24.7582 48.1919C24.7916 48.0182 24.8965 47.8747 25.0555 47.7927L26.1683 47.2192L28.8677 51.0256ZM25.6287 44.1552L19.1374 47.5007L19.1286 47.5053L17.2739 48.4611C16.2053 49.0119 14.8937 48.5924 14.3429 47.5238L10.2373 39.5576C9.68656 38.489 10.106 37.1774 11.1746 36.6267L19.5294 32.3208L25.6287 44.1552ZM53.5079 41.5791L26.5006 43.8735L20.2694 31.7829L37.8092 11.1186L53.5079 41.5791ZM47.0307 19.1867C47.0353 19.1955 47.0398 19.2043 47.0398 19.2043L52.2788 29.3696C52.2834 29.3784 52.2879 29.3873 52.2879 29.3873L58.1368 40.736C58.592 41.6192 58.2453 42.7032 57.3621 43.1584C56.479 43.6136 55.3949 43.2669 54.9398 42.3837L54.6257 41.7743C54.6211 41.7655 54.6211 41.7655 54.6166 41.7567L38.3079 10.1127C38.3034 10.1039 38.3034 10.1039 38.2988 10.095L37.9847 9.48563C37.5296 8.60246 37.8763 7.51841 38.7594 7.06324C39.6426 6.60807 40.7267 6.95476 41.1818 7.83793L47.0307 19.1867Z" fill="black"/>
</svg>
