<svg width="24" height="24" viewBox="0 0 24 24" fill="none" xmlns="http://www.w3.org/2000/svg">
<path d="M10.25 20.1667C10.25 20.9036 9.662 21.5 8.9375 21.5C8.213 21.5 7.625 20.9036 7.625 20.1667C7.625 19.4307 8.213 18.8333 8.9375 18.8333C9.662 18.8333 10.25 19.4307 10.25 20.1667ZM13.3125 18.8333C12.588 18.8333 12 19.4298 12 20.1667C12 20.9036 12.588 21.5 13.3125 21.5C14.037 21.5 14.625 20.9036 14.625 20.1667C14.625 19.4307 14.037 18.8333 13.3125 18.8333ZM18.8294 5.5L15.8264 16.1667H6.70188L3.397 8.16667H1.5L5.53813 17.9444H17.1222L20.162 7.27778H21.8499L22.5 5.5H18.8294Z" fill="white"/>
</svg>
