<svg width="24" height="24" viewBox="0 0 24 24" fill="none" xmlns="http://www.w3.org/2000/svg">
<path d="M12.0141 2C10.7027 2 9.40417 2.25865 8.19262 2.76117C6.98108 3.2637 5.88024 4.00026 4.95296 4.9288C3.08023 6.80408 2.02815 9.34751 2.02815 11.9996C2.01942 14.3086 2.81783 16.5479 4.28497 18.3293L2.28778 20.3292C2.14922 20.4698 2.05535 20.6484 2.01803 20.8424C1.98071 21.0363 2.0016 21.237 2.07808 21.4191C2.16102 21.5991 2.29547 21.7502 2.46438 21.8535C2.63328 21.9568 2.82902 22.0075 3.02674 21.9991H12.0141C14.6625 21.9991 17.2025 20.9456 19.0752 19.0703C20.9479 17.195 22 14.6516 22 11.9996C22 9.34751 20.9479 6.80408 19.0752 4.9288C17.2025 3.05352 14.6625 2 12.0141 2ZM12.0141 19.9992H5.43335L6.36204 19.0692C6.45639 18.9766 6.53146 18.8662 6.58288 18.7443C6.63431 18.6225 6.66107 18.4916 6.66162 18.3593C6.65786 18.0955 6.55019 17.8439 6.36204 17.6593C5.05447 16.3514 4.2402 14.63 4.05798 12.7883C3.87575 10.9467 4.33684 9.09869 5.36267 7.55928C6.38851 6.01986 7.91564 4.88423 9.68387 4.34587C11.4521 3.80751 13.352 3.89972 15.06 4.6068C16.7679 5.31388 18.1782 6.59207 19.0506 8.22362C19.923 9.85516 20.2034 11.7391 19.8442 13.5545C19.4849 15.3699 18.5082 17.0044 17.0805 18.1795C15.6527 19.3547 13.8622 19.9977 12.0141 19.9992Z" fill="white"/>
<circle cx="7.5" cy="12.5" r="1.5" fill="white"/>
<circle cx="17.5" cy="12.5" r="1.5" fill="white"/>
<circle cx="12.5" cy="12.5" r="1.5" fill="white"/>
</svg>
