<svg width="64" height="64" viewBox="0 0 64 64" fill="none" xmlns="http://www.w3.org/2000/svg">
<mask id="mask0_3076_417" style="mask-type:alpha" maskUnits="userSpaceOnUse" x="0" y="0" width="64" height="64">
<rect width="64" height="64" fill="#17181D"/>
</mask>
<g mask="url(#mask0_3076_417)">
</g>
<path d="M18 26C20.6051 14.9508 24.3092 11.1989 35.5 9.5C46.4631 11.1537 50.4055 14.6544 53.5 25.5L52 33L49.5 38L52.5 40.5L56.5 41.5L52 43L47 42.5L18 26Z" fill="white"/>
<path d="M35.687 45.0547C25.8005 45.0547 17.7573 37.0115 17.7573 27.125C17.7573 17.2385 25.8005 9.19531 35.687 9.19531C45.5735 9.19531 53.6167 17.2385 53.6167 27.125C53.6316 31.0595 52.3375 34.8871 49.9382 38.0054C50.4901 38.603 51.1261 39.1171 51.8263 39.5314C53.2234 40.3517 54.5646 40.5689 55.4521 40.7127C56.2136 40.836 56.7638 40.9251 56.803 41.4383C56.8073 41.5352 56.7906 41.6318 56.7541 41.7217C56.7176 41.8115 56.662 41.8924 56.5914 41.9587C55.8729 42.7181 52.9116 43.5227 50.0223 43.4609C48.2925 43.42 46.5822 43.0846 44.965 42.4691C42.1669 44.163 38.9579 45.0573 35.687 45.0547ZM35.687 9.99219C26.2399 9.99219 18.5542 17.6779 18.5542 27.125C18.5542 36.5721 26.2399 44.2578 35.687 44.2578C38.8768 44.2605 42.0037 43.3704 44.7139 41.6883C44.7665 41.6556 44.826 41.6357 44.8877 41.63C44.9493 41.6243 45.0114 41.6331 45.0691 41.6556C46.6535 42.2817 48.3361 42.6231 50.0392 42.6642C52.6865 42.7196 55.0388 42.0265 55.7949 41.5807C55.6507 41.5521 55.4782 41.5242 55.3248 41.4993C54.3786 41.3461 52.9486 41.1145 51.4228 40.2186C50.5541 39.7038 49.7755 39.0504 49.1178 38.2842C49.057 38.2139 49.0226 38.1246 49.0206 38.0317C49.0187 37.9388 49.0492 37.8482 49.1071 37.7754C51.5241 34.7532 52.8342 30.9949 52.8198 27.125C52.8198 17.6779 45.1341 9.99219 35.687 9.99219Z" fill="black"/>
<path d="M29.3125 22.3438C26.016 22.3437 22.7862 23.2731 19.994 25.0253C17.2017 26.7775 14.96 29.2815 13.5263 32.2499C12.0925 35.2183 11.5247 38.5307 11.8881 41.8072C12.2514 45.0836 13.5312 48.1912 15.5806 50.7733C14.9515 51.5069 14.2065 52.1325 13.375 52.625C10.9154 54.0692 8.63152 53.7248 8.59373 54.2188C8.54931 54.7995 11.6587 55.8823 14.9687 55.8125C16.7186 55.7702 18.4473 55.4195 20.0753 54.7767C22.3806 56.2057 24.9861 57.0803 27.6867 57.3317C30.3873 57.5832 33.1095 57.2046 35.639 56.2257C38.1685 55.2469 40.4364 53.6945 42.2643 51.6907C44.0922 49.6869 45.4303 47.2863 46.1732 44.6777C46.9161 42.0691 47.0437 39.3238 46.5459 36.6576C46.048 33.9913 44.9384 31.477 43.3041 29.3123C41.6699 27.1476 39.5558 25.3916 37.1279 24.1824C34.7001 22.9732 32.0248 22.3438 29.3125 22.3438Z" fill="#03DAC5"/>
<path d="M29.3125 57.8047C26.0416 57.8073 22.8326 56.913 20.0345 55.2191C18.4173 55.8345 16.707 56.1699 14.9771 56.2108C12.0892 56.2717 9.1265 55.4681 8.40813 54.7087C8.33745 54.6423 8.28194 54.5615 8.24541 54.4717C8.20888 54.3818 8.19218 54.2852 8.19646 54.1883C8.23571 53.6751 8.78589 53.586 9.54736 53.4626C10.4349 53.3189 11.7761 53.1017 13.1732 52.2814C13.8733 51.8671 14.5094 51.353 15.0613 50.7554C12.662 47.6371 11.3679 43.8095 11.3828 39.875C11.3828 29.9885 19.426 21.9453 29.3125 21.9453C39.1989 21.9453 47.2422 29.9885 47.2422 39.875C47.2422 49.7615 39.1989 57.8047 29.3125 57.8047ZM20.0753 54.3783C20.1496 54.3783 20.2225 54.399 20.2856 54.4383C22.9958 56.1204 26.1227 57.0105 29.3125 57.0078C38.7596 57.0078 46.4453 49.3221 46.4453 39.875C46.4453 30.4279 38.7596 22.7422 29.3125 22.7422C19.8654 22.7422 12.1797 30.4279 12.1797 39.875C12.1653 43.7448 13.4754 47.5031 15.8924 50.5254C15.9503 50.5981 15.9809 50.6888 15.9789 50.7817C15.9769 50.8746 15.9425 50.9639 15.8817 51.0341C15.2241 51.8004 14.4455 52.4538 13.5767 52.9685C12.0509 53.8644 10.621 54.0961 9.67475 54.2493C9.52135 54.2742 9.34884 54.3021 9.20459 54.3306C9.96063 54.7764 12.3139 55.4702 14.9603 55.4141C16.6634 55.3731 18.3459 55.0316 19.9304 54.4055C19.9766 54.3875 20.0257 54.3783 20.0753 54.3783Z" fill="black"/>
<circle cx="20.5" cy="40" r="2.5" fill="#F7DA6E"/>
<circle cx="30" cy="40" r="2.5" fill="#F7DA6E"/>
<circle cx="39.5" cy="40" r="2.5" fill="#F7DA6E"/>
<path d="M39.6719 42.6641C39.1203 42.6641 38.581 42.5005 38.1224 42.194C37.6637 41.8876 37.3062 41.452 37.0951 40.9423C36.884 40.4327 36.8288 39.8719 36.9364 39.3309C37.044 38.7899 37.3097 38.2929 37.6997 37.9028C38.0898 37.5128 38.5867 37.2471 39.1278 37.1395C39.6688 37.0319 40.2296 37.0871 40.7392 37.2982C41.2488 37.5093 41.6844 37.8668 41.9909 38.3255C42.2974 38.7841 42.4609 39.3234 42.4609 39.875C42.4601 40.6145 42.166 41.3234 41.6431 41.8463C41.1203 42.3691 40.4113 42.6632 39.6719 42.6641ZM39.6719 37.8828C39.2779 37.8828 38.8927 37.9997 38.5651 38.2186C38.2375 38.4375 37.9821 38.7486 37.8313 39.1126C37.6805 39.4766 37.6411 39.8772 37.718 40.2637C37.7948 40.6501 37.9846 41.0051 38.2632 41.2837C38.5418 41.5623 38.8968 41.752 39.2832 41.8289C39.6697 41.9058 40.0702 41.8663 40.4343 41.7155C40.7983 41.5648 41.1094 41.3094 41.3283 40.9818C41.5472 40.6542 41.6641 40.269 41.6641 39.875C41.6635 39.3468 41.4534 38.8405 41.0799 38.467C40.7064 38.0935 40.2001 37.8834 39.6719 37.8828Z" fill="black"/>
<path d="M30.1094 42.6641C29.5578 42.6641 29.0185 42.5005 28.5599 42.194C28.1012 41.8876 27.7437 41.452 27.5326 40.9423C27.3215 40.4327 27.2663 39.8719 27.3739 39.3309C27.4815 38.7899 27.7472 38.2929 28.1372 37.9028C28.5273 37.5128 29.0242 37.2471 29.5653 37.1395C30.1063 37.0319 30.6671 37.0871 31.1767 37.2982C31.6863 37.5093 32.1219 37.8668 32.4284 38.3255C32.7349 38.7841 32.8984 39.3234 32.8984 39.875C32.8976 40.6145 32.6035 41.3234 32.0806 41.8463C31.5578 42.3691 30.8488 42.6632 30.1094 42.6641ZM30.1094 37.8828C29.7154 37.8828 29.3302 37.9997 29.0026 38.2186C28.675 38.4375 28.4196 38.7486 28.2688 39.1126C28.1181 39.4766 28.0786 39.8772 28.1555 40.2637C28.2323 40.6501 28.4221 41.0051 28.7007 41.2837C28.9793 41.5623 29.3343 41.752 29.7207 41.8289C30.1072 41.9058 30.5077 41.8663 30.8718 41.7155C31.2358 41.5648 31.5469 41.3094 31.7658 40.9818C31.9847 40.6542 32.1016 40.269 32.1016 39.875C32.101 39.3468 31.8909 38.8405 31.5174 38.467C31.1439 38.0935 30.6376 37.8834 30.1094 37.8828Z" fill="black"/>
<path d="M20.5469 42.6641C19.9953 42.6641 19.456 42.5005 18.9974 42.194C18.5387 41.8876 18.1812 41.452 17.9701 40.9423C17.759 40.4327 17.7038 39.8719 17.8114 39.3309C17.919 38.7899 18.1847 38.2929 18.5747 37.9028C18.9648 37.5128 19.4617 37.2471 20.0028 37.1395C20.5438 37.0319 21.1046 37.0871 21.6142 37.2982C22.1238 37.5093 22.5594 37.8668 22.8659 38.3255C23.1724 38.7841 23.3359 39.3234 23.3359 39.875C23.3351 40.6145 23.041 41.3234 22.5181 41.8463C21.9953 42.3691 21.2863 42.6632 20.5469 42.6641ZM20.5469 37.8828C20.1529 37.8828 19.7677 37.9997 19.4401 38.2186C19.1125 38.4375 18.8571 38.7486 18.7063 39.1126C18.5556 39.4766 18.5161 39.8772 18.593 40.2637C18.6698 40.6501 18.8596 41.0051 19.1382 41.2837C19.4168 41.5623 19.7718 41.752 20.1582 41.8289C20.5447 41.9058 20.9452 41.8663 21.3093 41.7155C21.6733 41.5648 21.9844 41.3094 22.2033 40.9818C22.4222 40.6542 22.5391 40.269 22.5391 39.875C22.5385 39.3468 22.3284 38.8405 21.9549 38.467C21.5814 38.0935 21.0751 37.8834 20.5469 37.8828Z" fill="black"/>
<path d="M38.8754 27.5232C38.7916 27.5233 38.7099 27.4967 38.6422 27.4472C38.1431 27.0722 37.622 26.7274 37.0818 26.4146C37.0363 26.3884 36.9964 26.3536 36.9645 26.3121C36.9325 26.2705 36.909 26.2231 36.8954 26.1724C36.8818 26.1218 36.8783 26.069 36.8851 26.017C36.892 25.965 36.909 25.9149 36.9353 25.8695C36.9615 25.8241 36.9965 25.7843 37.0381 25.7525C37.0798 25.7206 37.1273 25.6973 37.178 25.6839C37.2287 25.6704 37.2815 25.6671 37.3335 25.6741C37.3854 25.6812 37.4355 25.6984 37.4808 25.7248C38.0463 26.0521 38.5918 26.4129 39.1143 26.8052C39.1813 26.8554 39.2308 26.9254 39.2559 27.0053C39.2809 27.0852 39.2801 27.1709 39.2537 27.2504C39.2273 27.3298 39.1765 27.3989 39.1086 27.4479C39.0407 27.4968 38.9592 27.5232 38.8754 27.5232Z" fill="black"/>
<path d="M34.0939 25.0657C34.0533 25.0656 34.013 25.0594 33.9743 25.0473C32.4656 24.5743 30.8936 24.3345 29.3125 24.3359C29.2068 24.3359 29.1055 24.294 29.0308 24.2192C28.956 24.1445 28.9141 24.0432 28.9141 23.9375C28.9141 23.8318 28.956 23.7305 29.0308 23.6558C29.1055 23.581 29.2068 23.5391 29.3125 23.5391C30.9746 23.5376 32.6272 23.7898 34.2132 24.287C34.304 24.3155 34.3816 24.3756 34.4319 24.4564C34.4823 24.5372 34.502 24.6334 34.4876 24.7275C34.4732 24.8216 34.4255 24.9074 34.3533 24.9695C34.2811 25.0315 34.1891 25.0656 34.0939 25.0657Z" fill="black"/>
<path d="M47.0692 16.3672C47.0162 16.3673 46.9637 16.3567 46.9148 16.3362C46.8659 16.3157 46.8217 16.2856 46.7846 16.2477C46.2332 15.6854 45.6402 15.1655 45.0107 14.6924C44.9266 14.6288 44.8711 14.5344 44.8564 14.43C44.8417 14.3256 44.8691 14.2196 44.9324 14.1353C44.9957 14.0509 45.0899 13.9952 45.1943 13.9802C45.2987 13.9652 45.4048 13.9922 45.4893 14.0552C46.1509 14.5525 46.7742 15.0989 47.3537 15.6899C47.4086 15.7459 47.4457 15.8169 47.4605 15.8939C47.4752 15.971 47.4669 16.0507 47.4365 16.123C47.4061 16.1954 47.355 16.2571 47.2897 16.3006C47.2244 16.344 47.1476 16.3672 47.0692 16.3672Z" fill="black"/>
<path d="M42.0623 12.9122C42.0074 12.9122 41.9532 12.9008 41.9029 12.8788C39.9431 12.0217 37.8265 11.5814 35.6875 11.5859C35.5818 11.5859 35.4805 11.544 35.4058 11.4692C35.331 11.3945 35.2891 11.2932 35.2891 11.1875C35.2891 11.0818 35.331 10.9805 35.4058 10.9058C35.4805 10.831 35.5818 10.7891 35.6875 10.7891C37.9364 10.7844 40.1616 11.2473 42.222 12.1485C42.3059 12.1852 42.3746 12.2496 42.4166 12.331C42.4585 12.4123 42.4712 12.5057 42.4525 12.5953C42.4337 12.6849 42.3847 12.7653 42.3137 12.823C42.2426 12.8807 42.1538 12.9122 42.0623 12.9122Z" fill="black"/>
</svg>
