<svg width="24" height="24" viewBox="0 0 24 24" fill="none" xmlns="http://www.w3.org/2000/svg">
<path d="M5.22819 19.0047H12.2282H19.7282C20.5338 19.051 20.6584 18.7118 20.2282 18.0047L13.2282 5.00469C12.4354 3.68355 11.9964 3.64679 11.2282 5.00469L4.22819 18.0047C3.77486 18.8115 3.94241 19.0803 5.22819 19.0047Z" stroke="white" stroke-linecap="round"/>
<path d="M11.5 9.5C11.5 9.43202 11.6168 9 12 9C12.3832 9 12.5 9.41797 12.5 9.5V12.5C12.5 12.5859 12.4168 13 12 13C11.5832 13 11.5 12.5625 11.5 12.5V9.5Z" stroke="white"/>
<path d="M11.5 15.5C11.5 15.3961 11.5625 15 12 15C12.4375 15 12.5 15.4252 12.5 15.5V16.5C12.5 16.5859 12.3594 17 12 17C11.6406 17 11.5 16.5811 11.5 16.5V15.5Z" stroke="white"/>
</svg>
