<svg width="24" height="24" viewBox="0 0 24 24" fill="none" xmlns="http://www.w3.org/2000/svg">
<path fill-rule="evenodd" clip-rule="evenodd" d="M3.39182 7.43263C3.91489 6.9019 4.762 6.9019 5.28507 7.43263L11.4828 13.7198L17.6805 7.43263C17.8031 7.29909 17.951 7.19198 18.1153 7.11769C18.2796 7.04341 18.457 7.00346 18.6369 7.00024C18.8167 6.99702 18.9954 7.03059 19.1622 7.09895C19.329 7.16731 19.4805 7.26906 19.6077 7.39812C19.7349 7.52719 19.8352 7.68093 19.9026 7.85017C19.9699 8.01941 20.003 8.20069 19.9999 8.38318C19.9967 8.56568 19.9573 8.74566 19.8841 8.91238C19.8109 9.07911 19.7053 9.22916 19.5737 9.35359L12.4294 16.6025C12.1782 16.8571 11.8378 17 11.4828 17C11.1278 17 10.7873 16.8571 10.5361 16.6025L3.39182 9.35359C3.14096 9.09875 3.00006 8.75329 3.00006 8.39311C3.00006 8.03293 3.14096 7.68747 3.39182 7.43263Z" fill="white"/>
</svg>
