<svg width="64" height="64" viewBox="0 0 64 64" fill="none" xmlns="http://www.w3.org/2000/svg">
<path d="M37 28L33 24L28.5 21.5L25.5 21L23.5 22L7.5 56L37 28Z" fill="white"/>
<path d="M37 27.3916L42.5 36.8916L41.5 39.3916L7 56L37 27.3916Z" fill="#03DAC5"/>
<path d="M6.83704 56.6231C6.76141 56.6249 6.68625 56.6107 6.61638 56.5817C6.5465 56.5527 6.48345 56.5095 6.43126 56.4547C6.34542 56.3725 6.28801 56.2651 6.26736 56.1481C6.2467 56.0311 6.26389 55.9105 6.31642 55.8039L22.7544 21.9633C22.7863 21.8948 22.8317 21.8334 22.8877 21.7826C22.9437 21.7319 23.0094 21.6929 23.0807 21.6679C23.1521 21.643 23.2277 21.6325 23.3031 21.6372C23.3786 21.6419 23.4523 21.6617 23.52 21.6953C23.657 21.7615 23.7621 21.8792 23.8123 22.0227C23.8626 22.1663 23.8538 22.3239 23.788 22.461L8.07736 54.8086L40.425 39.098C40.5621 39.0322 40.7197 39.0234 40.8632 39.0737C41.0068 39.1239 41.1245 39.229 41.1906 39.366C41.2243 39.4336 41.244 39.5074 41.2487 39.5828C41.2534 39.6583 41.243 39.7339 41.218 39.8052C41.1931 39.8766 41.1541 39.9422 41.1033 39.9983C41.0526 40.0543 40.9912 40.0996 40.9227 40.1316L7.08204 56.5695C7.00567 56.6063 6.92177 56.6246 6.83704 56.6231Z" fill="black"/>
<path d="M39.6211 40.2617C36.8342 40.2617 32.6386 37.9649 28.7722 34.1367C26.5506 32.0004 24.7348 29.479 23.4128 26.6948C22.3027 24.1377 22.3027 22.1011 23.4128 21.0063C25.6025 18.8242 31.3677 21.167 36.5433 26.3656C38.7676 28.4996 40.5838 31.0215 41.9027 33.8075C43.0052 36.3647 43.0052 38.4013 41.9027 39.4961C41.5923 39.769 41.2307 39.9772 40.839 40.1087C40.4472 40.2401 40.0332 40.2922 39.6211 40.2617ZM25.725 21.3048C25.4586 21.2852 25.1909 21.3184 24.9373 21.4025C24.6837 21.4866 24.4493 21.6199 24.2473 21.7948C23.4817 22.5605 23.5889 24.1453 24.4847 26.2125C25.7448 28.8628 27.4721 31.2644 29.5838 33.3022C34.5527 38.2634 39.6364 40.0933 41.0681 38.6616C42.4998 37.2299 40.693 32.1155 35.7088 27.1772C31.8959 23.2725 27.9683 21.3048 25.725 21.3048Z" fill="black"/>
<path d="M33.1362 43.8525C33.0855 43.8599 33.0339 43.8599 32.9831 43.8525C23.3975 41.2494 19.9675 28.8769 19.822 28.3486C19.793 28.2736 19.7801 28.1933 19.7842 28.1129C19.7882 28.0326 19.8091 27.954 19.8454 27.8822C19.8818 27.8105 19.9328 27.7471 19.9952 27.6964C20.0576 27.6456 20.1299 27.6085 20.2076 27.5874C20.2852 27.5664 20.3664 27.5619 20.4459 27.5743C20.5254 27.5866 20.6014 27.6156 20.669 27.6592C20.7366 27.7028 20.7942 27.7601 20.8383 27.8274C20.8823 27.8948 20.9117 27.9706 20.9245 28.05C20.9628 28.1725 24.3392 40.3 33.2817 42.75C33.4133 42.7882 33.5269 42.8722 33.6019 42.9868C33.677 43.1015 33.7086 43.2392 33.691 43.375C33.6735 43.5109 33.6079 43.6361 33.5062 43.7278C33.4044 43.8196 33.2732 43.872 33.1362 43.8755V43.8525Z" fill="black"/>
<path d="M22.4788 49.0281C22.3585 49.0254 22.2416 48.9882 22.1419 48.9209C17.8085 45.8584 16.1471 40.7823 15.435 38.6156C15.3661 38.4166 15.3125 38.2405 15.2589 38.095C15.2298 38.0218 15.2158 37.9434 15.2179 37.8646C15.22 37.7858 15.238 37.7083 15.271 37.6367C15.3039 37.5651 15.351 37.501 15.4095 37.4481C15.468 37.3953 15.5366 37.3549 15.6111 37.3294C15.6842 37.2991 15.7628 37.2842 15.8419 37.2858C15.921 37.2873 15.999 37.3051 16.0709 37.3382C16.1428 37.3713 16.2071 37.4188 16.2597 37.4779C16.3123 37.537 16.3522 37.6063 16.3767 37.6816C16.4303 37.8347 16.4839 38.0184 16.5528 38.2252C17.2266 40.2847 18.8497 45.1158 22.8386 47.9562C22.9372 48.0268 23.011 48.1267 23.0493 48.2417C23.0877 48.3567 23.0886 48.4808 23.0521 48.5964C23.0155 48.712 22.9434 48.813 22.8459 48.8851C22.7484 48.9571 22.6306 48.9965 22.5094 48.9975L22.4788 49.0281Z" fill="black"/>
<path d="M13.7813 53.2774C13.7076 53.2781 13.6345 53.2643 13.5662 53.2367C13.4978 53.2091 13.4356 53.1683 13.3831 53.1166C12.2194 52.0141 10.2594 49.6636 10.2594 47.872C10.2594 47.7197 10.3199 47.5737 10.4276 47.466C10.5353 47.3583 10.6813 47.2978 10.8336 47.2978C10.9859 47.2978 11.132 47.3583 11.2397 47.466C11.3473 47.5737 11.4078 47.7197 11.4078 47.872C11.4078 49.0281 12.8319 51.0111 14.1794 52.2897C14.2851 52.3983 14.3442 52.5439 14.3442 52.6955C14.3442 52.847 14.2851 52.9926 14.1794 53.1013C14.0736 53.208 13.9314 53.2708 13.7813 53.2774Z" fill="black"/>
<path d="M34.5 7.89164L36.7297 7.63578L38 5.89163L39.0116 8.4575L40.5 8.89163L39.1698 10.3341L39 12.8916L37.4542 11.3085L36.23 11.55L35 11.8916L35 9.89163L34.5 7.89164Z" fill="#FD9A71"/>
<path d="M51.6951 27.8903L53.9247 27.6344L55.1951 25.8903L56.2067 28.4562L57.6951 28.8903L56.3649 30.3328L56.1951 32.8903L54.6493 31.3072L53.425 31.5487L52.1951 31.8903L52.1951 29.8903L51.6951 27.8903Z" fill="#BCDE5A"/>
<path d="M47 15.8916L48.5 13.3916L50 10.8916L52.5 12.3916L55 11.8916L54.5 14.8916L55.5 17.8916H53L51.5 19.3916H50L49.5 17.3916L47 15.8916Z" fill="#F7DA6E"/>
<path d="M52.9897 18.6196C52.9909 18.6183 52.9923 18.6172 52.9939 18.6166C52.9954 18.6159 52.9972 18.6157 52.9989 18.6158L54.7305 18.7785C55.0322 18.8068 55.3357 18.7501 55.6069 18.6149C55.8781 18.4797 56.106 18.2713 56.2649 18.0133C56.4239 17.7554 56.5074 17.4581 56.5062 17.155C56.505 16.852 56.419 16.5554 56.258 16.2987L55.3338 14.8254C55.3329 14.8239 55.3324 14.8223 55.3322 14.8206C55.3321 14.8189 55.3324 14.8172 55.3331 14.8156L56.0229 13.2191C56.1431 12.9409 56.183 12.6347 56.1382 12.335C56.0934 12.0353 55.9657 11.7542 55.7694 11.5233C55.5731 11.2924 55.3162 11.1211 55.0277 11.0286C54.7391 10.9361 54.4304 10.9262 54.1365 11.0001L52.4497 11.4237C52.4481 11.4241 52.4463 11.4241 52.4446 11.4237C52.443 11.4233 52.4414 11.4225 52.4401 11.4213L51.1349 10.272C50.9075 10.0718 50.6286 9.93913 50.3298 9.88912C50.0309 9.83912 49.724 9.87372 49.4438 9.98902C49.1636 10.1043 48.9212 10.2957 48.7441 10.5416C48.567 10.7874 48.4622 11.0779 48.4416 11.3802L48.3233 13.1152C48.3232 13.117 48.3226 13.1187 48.3217 13.1202C48.3208 13.1216 48.3195 13.1229 48.318 13.1238L46.8217 14.01C46.5602 14.1639 46.3472 14.388 46.2068 14.6569C46.0664 14.9257 46.0042 15.2286 46.0273 15.5311C46.0504 15.8335 46.1578 16.1235 46.3375 16.3679C46.5171 16.6123 46.7616 16.8015 47.0434 16.9139L48.657 17.5627C48.6586 17.5633 48.66 17.5643 48.6612 17.5656C48.6623 17.5669 48.663 17.5685 48.6634 17.5702L49.0438 19.2672C49.11 19.5629 49.2577 19.8341 49.4701 20.0503C49.6825 20.2664 49.9511 20.4188 50.2456 20.4902C50.54 20.5616 50.8486 20.5492 51.1364 20.4544C51.4242 20.3596 51.6797 20.1862 51.8741 19.9538L52.9897 18.6196ZM53.1247 17.2756C52.9057 17.2551 52.685 17.2881 52.4816 17.3718C52.2782 17.4555 52.0982 17.5874 51.9572 17.7562L50.8415 19.0903C50.8082 19.1301 50.7645 19.1598 50.7153 19.176C50.666 19.1922 50.6132 19.1943 50.5628 19.1821C50.5125 19.1699 50.4665 19.1438 50.4302 19.1068C50.3938 19.0698 50.3686 19.0234 50.3572 18.9729L49.9769 17.2758C49.9288 17.0612 49.8292 16.8614 49.6868 16.6938C49.5443 16.5263 49.3632 16.3958 49.1591 16.3138L47.5455 15.6651C47.4974 15.6457 47.4556 15.6133 47.425 15.5715C47.3944 15.5297 47.376 15.4801 47.3721 15.4284C47.3681 15.3767 47.3787 15.325 47.4027 15.279C47.4266 15.233 47.4629 15.1946 47.5075 15.1682L49.0039 14.282C49.1932 14.1699 49.3524 14.0135 49.4677 13.8262C49.5831 13.6389 49.6512 13.4264 49.6662 13.2069L49.7845 11.4718C49.788 11.4201 49.806 11.3704 49.8363 11.3283C49.8666 11.2863 49.9081 11.2535 49.956 11.2338C50.0039 11.2141 50.0565 11.2082 50.1076 11.2167C50.1587 11.2253 50.2064 11.248 50.2453 11.2822L51.5505 12.4315C51.7156 12.5769 51.9135 12.68 52.1273 12.7319C52.3411 12.7837 52.5643 12.7828 52.7776 12.7292L54.4643 12.3056C54.5146 12.2929 54.5675 12.2946 54.6168 12.3104C54.6662 12.3262 54.7102 12.3556 54.7438 12.3951C54.7774 12.4346 54.7992 12.4827 54.8069 12.534C54.8146 12.5853 54.8077 12.6377 54.7872 12.6853L54.0974 14.2817C54.0101 14.4836 53.9733 14.7038 53.99 14.9231C54.0068 15.1425 54.0766 15.3544 54.1935 15.5408L55.1176 17.0141C55.1452 17.058 55.1599 17.1087 55.1601 17.1606C55.1603 17.2124 55.146 17.2633 55.1188 17.3074C55.0916 17.3515 55.0526 17.3872 55.0063 17.4103C54.9599 17.4335 54.9079 17.4432 54.8563 17.4383L53.1247 17.2756Z" fill="black"/>
<path d="M39.7993 10.6801C39.7993 10.6789 39.7996 10.6776 39.8001 10.6765C39.8007 10.6754 39.8015 10.6745 39.8025 10.6737L40.827 9.94327C41.0054 9.816 41.1448 9.64133 41.2291 9.43901C41.3135 9.2367 41.3396 9.01481 41.3045 8.79844C41.2694 8.58206 41.1744 8.37983 41.0303 8.21462C40.8863 8.0494 40.6988 7.92779 40.4893 7.86353L39.2863 7.49472C39.2851 7.49436 39.2841 7.49371 39.2832 7.49283C39.2823 7.49196 39.2816 7.49088 39.2813 7.4897L38.9032 6.2897C38.8373 6.08062 38.7142 5.89415 38.5479 5.75137C38.3816 5.60859 38.1786 5.51519 37.962 5.48174C37.7453 5.44829 37.5236 5.47613 37.322 5.56209C37.1203 5.64806 36.9467 5.78873 36.8209 5.9682L36.0984 6.99829C36.0977 6.9993 36.0967 7.00012 36.0956 7.00069C36.0945 7.00125 36.0933 7.00153 36.092 7.00151L34.8339 6.99032C34.6147 6.98838 34.3993 7.0478 34.2122 7.16187C34.025 7.27594 33.8734 7.4401 33.7747 7.6358C33.6759 7.8315 33.6339 8.05093 33.6533 8.26927C33.6727 8.48761 33.7529 8.69617 33.8846 8.87135L34.641 9.87668C34.6418 9.87769 34.6423 9.87887 34.6425 9.88011C34.6427 9.88136 34.6426 9.88264 34.6422 9.88384L34.2428 11.0769C34.1726 11.2848 34.1621 11.5082 34.2125 11.7218C34.2629 11.9354 34.3722 12.1306 34.528 12.2851C34.6838 12.4397 34.8798 12.5475 35.0937 12.5962C35.3077 12.645 35.531 12.6328 35.7384 12.5609L36.9284 12.1523C36.9295 12.1518 36.9308 12.1517 36.932 12.1519C36.9332 12.1521 36.9344 12.1526 36.9354 12.1533L37.9467 12.9019C38.1228 13.0323 38.332 13.1109 38.5505 13.1286C38.769 13.1464 38.9881 13.1026 39.183 13.0024C39.3779 12.9021 39.5409 12.7493 39.6535 12.5612C39.7661 12.3731 39.8239 12.1573 39.8202 11.9381L39.7993 10.6801ZM39.2371 9.88087C39.1076 9.97326 39.0024 10.0958 38.9307 10.2378C38.8591 10.3799 38.823 10.5372 38.8257 10.6963L38.8466 11.9544C38.8472 11.9919 38.8374 12.0288 38.8181 12.061C38.7988 12.0932 38.7709 12.1193 38.7376 12.1364C38.7042 12.1536 38.6667 12.1611 38.6294 12.158C38.592 12.155 38.5562 12.1416 38.526 12.1192L37.5148 11.3707C37.3869 11.276 37.2379 11.2138 37.0806 11.1895C36.9234 11.1653 36.7626 11.1796 36.6121 11.2313L35.4221 11.64C35.3866 11.6522 35.3485 11.6542 35.3119 11.6458C35.2754 11.6374 35.2419 11.619 35.2152 11.5926C35.1886 11.5661 35.1699 11.5328 35.1613 11.4963C35.1526 11.4598 35.1543 11.4216 35.1662 11.3861L35.5656 10.193C35.6161 10.0421 35.6292 9.88116 35.6037 9.72407C35.5782 9.56699 35.5149 9.41846 35.4192 9.29129L34.6628 8.28593C34.6403 8.25595 34.6266 8.22026 34.6232 8.18291C34.6199 8.14555 34.6271 8.10801 34.644 8.07453C34.6609 8.04105 34.6868 8.01297 34.7189 7.99345C34.7509 7.97393 34.7877 7.96376 34.8252 7.96409L36.0833 7.97527C36.2424 7.97673 36.3995 7.93945 36.541 7.86666C36.6826 7.79387 36.8043 7.68774 36.8956 7.55744L37.6181 6.52741C37.6396 6.49669 37.6693 6.47261 37.7038 6.45789C37.7383 6.44318 37.7763 6.43841 37.8133 6.44413C37.8504 6.44985 37.8851 6.46583 37.9136 6.49027C37.9421 6.5147 37.9631 6.54661 37.9744 6.58239L38.3525 7.78236C38.4003 7.93415 38.4843 8.07204 38.5973 8.18413C38.7102 8.29623 38.8488 8.37916 39.0009 8.42578L40.2038 8.79461C40.2397 8.80561 40.2717 8.82642 40.2964 8.85468C40.321 8.88294 40.3373 8.91754 40.3433 8.95456C40.3493 8.99157 40.3448 9.02953 40.3304 9.06415C40.316 9.09876 40.2922 9.12865 40.2616 9.15043L39.2371 9.88087Z" fill="black"/>
<path d="M56.7993 30.6801C56.7993 30.6789 56.7996 30.6776 56.8001 30.6765C56.8007 30.6754 56.8015 30.6745 56.8025 30.6737L57.827 29.9433C58.0054 29.816 58.1448 29.6413 58.2291 29.439C58.3135 29.2367 58.3396 29.0148 58.3045 28.7984C58.2694 28.5821 58.1744 28.3798 58.0303 28.2146C57.8863 28.0494 57.6988 27.9278 57.4893 27.8635L56.2863 27.4947C56.2851 27.4944 56.2841 27.4937 56.2832 27.4928C56.2823 27.492 56.2816 27.4909 56.2813 27.4897L55.9032 26.2897C55.8373 26.0806 55.7142 25.8941 55.5479 25.7514C55.3816 25.6086 55.1786 25.5152 54.962 25.4817C54.7453 25.4483 54.5236 25.4761 54.322 25.5621C54.1203 25.6481 53.9467 25.7887 53.8209 25.9682L53.0984 26.9983C53.0977 26.9993 53.0967 27.0001 53.0956 27.0007C53.0945 27.0012 53.0933 27.0015 53.092 27.0015L51.8339 26.9903C51.6147 26.9884 51.3993 27.0478 51.2122 27.1619C51.025 27.2759 50.8734 27.4401 50.7747 27.6358C50.6759 27.8315 50.6339 28.0509 50.6533 28.2693C50.6727 28.4876 50.7529 28.6962 50.8846 28.8713L51.641 29.8767C51.6418 29.8777 51.6423 29.8789 51.6425 29.8801C51.6427 29.8814 51.6426 29.8826 51.6422 29.8838L51.2428 31.0769C51.1726 31.2848 51.1621 31.5082 51.2125 31.7218C51.2629 31.9354 51.3722 32.1306 51.528 32.2851C51.6838 32.4397 51.8798 32.5475 52.0937 32.5962C52.3077 32.645 52.531 32.6328 52.7384 32.5609L53.9284 32.1523C53.9295 32.1518 53.9308 32.1517 53.932 32.1519C53.9332 32.1521 53.9344 32.1526 53.9354 32.1533L54.9467 32.9019C55.1228 33.0323 55.332 33.1109 55.5505 33.1286C55.769 33.1464 55.9881 33.1026 56.183 33.0024C56.3779 32.9021 56.5409 32.7493 56.6535 32.5612C56.7661 32.3731 56.8239 32.1573 56.8202 31.9381L56.7993 30.6801ZM56.2371 29.8809C56.1076 29.9733 56.0024 30.0958 55.9307 30.2378C55.8591 30.3799 55.823 30.5372 55.8257 30.6963L55.8466 31.9544C55.8472 31.9919 55.8374 32.0288 55.8181 32.061C55.7988 32.0932 55.7709 32.1193 55.7376 32.1364C55.7042 32.1536 55.6667 32.1611 55.6294 32.158C55.592 32.155 55.5562 32.1416 55.526 32.1192L54.5148 31.3707C54.3869 31.276 54.2379 31.2138 54.0806 31.1895C53.9234 31.1653 53.7626 31.1796 53.6121 31.2313L52.4221 31.64C52.3866 31.6522 52.3485 31.6542 52.3119 31.6458C52.2754 31.6374 52.2419 31.619 52.2152 31.5926C52.1886 31.5661 52.1699 31.5328 52.1613 31.4963C52.1526 31.4598 52.1543 31.4216 52.1662 31.3861L52.5656 30.193C52.6161 30.0421 52.6292 29.8812 52.6037 29.7241C52.5782 29.567 52.5149 29.4185 52.4192 29.2913L51.6628 28.2859C51.6403 28.2559 51.6266 28.2203 51.6232 28.1829C51.6199 28.1456 51.6271 28.108 51.644 28.0745C51.6609 28.0411 51.6868 28.013 51.7189 27.9935C51.7509 27.9739 51.7877 27.9638 51.8252 27.9641L53.0833 27.9753C53.2424 27.9767 53.3995 27.9395 53.541 27.8667C53.6826 27.7939 53.8043 27.6877 53.8956 27.5574L54.6181 26.5274C54.6396 26.4967 54.6693 26.4726 54.7038 26.4579C54.7383 26.4432 54.7763 26.4384 54.8133 26.4441C54.8504 26.4499 54.8851 26.4658 54.9136 26.4903C54.9421 26.5147 54.9631 26.5466 54.9744 26.5824L55.3525 27.7824C55.4003 27.9342 55.4843 28.072 55.5973 28.1841C55.7102 28.2962 55.8488 28.3792 56.0009 28.4258L57.2038 28.7946C57.2397 28.8056 57.2717 28.8264 57.2964 28.8547C57.321 28.8829 57.3373 28.9175 57.3433 28.9546C57.3493 28.9916 57.3448 29.0295 57.3304 29.0641C57.316 29.0988 57.2922 29.1286 57.2616 29.1504L56.2371 29.8809Z" fill="black"/>
<path d="M46.7764 19.1678C46.6607 19.0318 46.4958 18.9473 46.3179 18.9329C46.14 18.9184 45.9637 18.9753 45.8277 19.0909L33.4379 29.6228C33.3019 29.7384 33.2174 29.9033 33.203 30.0812C33.1885 30.2591 33.2454 30.4355 33.361 30.5715C33.4766 30.7075 33.6415 30.792 33.8194 30.8064C33.9973 30.8208 34.1737 30.764 34.3097 30.6484L46.6995 20.1165C46.8355 20.0009 46.92 19.836 46.9344 19.6581C46.9488 19.4802 46.892 19.3038 46.7764 19.1678Z" fill="#008B7E"/>
<path d="M49.5891 29.1489L49.4441 29.1441C44.9341 28.991 40.5294 30.5277 37.0933 33.4532L34.8884 35.3275C34.7524 35.4431 34.6679 35.608 34.6534 35.7859C34.639 35.9638 34.6959 36.1402 34.8115 36.2762C34.9271 36.4122 35.092 36.4967 35.2699 36.5111C35.4478 36.5255 35.6242 36.4687 35.7602 36.3531L37.9651 34.4788C41.1462 31.7704 45.2241 30.3476 49.3996 30.4894L49.5447 30.4942C49.7231 30.5001 49.8965 30.4349 50.0268 30.3129C50.1571 30.1909 50.2337 30.0222 50.2396 29.8438C50.2455 29.6654 50.1803 29.4919 50.0583 29.3616C49.9363 29.2313 49.7675 29.1547 49.5891 29.1488L49.5891 29.1489Z" fill="#008B7E"/>
<path d="M37.3785 14.7843C37.4015 14.6072 37.3531 14.4284 37.2441 14.287C37.1352 14.1456 36.9745 14.0533 36.7975 14.0304C36.6204 14.0075 36.4416 14.0559 36.3002 14.1648C36.1588 14.2738 36.0665 14.4345 36.0436 14.6115L36.025 14.7555C35.4924 18.8993 33.4315 22.6948 30.2462 25.3981L28.0412 27.2725C27.9052 27.3881 27.8207 27.553 27.8063 27.7309C27.7919 27.9088 27.8487 28.0852 27.9643 28.2212C28.0799 28.3572 28.2448 28.4417 28.4228 28.4561C28.6007 28.4705 28.777 28.4137 28.913 28.2981L31.118 26.4237C34.5586 23.5037 36.7846 19.4041 37.3599 14.9282L37.3785 14.7843Z" fill="#008B7E"/>
</svg>
