<svg width="24" height="24" viewBox="0 0 24 24" fill="none" xmlns="http://www.w3.org/2000/svg">
<path d="M12.0055 6.56252C12.2991 5.96534 12.6383 5.45968 13.0733 5.02075C14.8084 3.26828 17.7026 3.10722 19.6079 4.68154C21.1076 5.92039 21.8653 7.53497 21.911 9.47402C21.9293 10.2615 21.6362 10.9797 21.2721 11.665C20.5462 13.0309 19.545 14.1855 18.4695 15.282C16.5496 17.2375 14.4226 18.949 12.1949 20.538C12.0966 20.6097 12.0215 20.6897 11.8663 20.5799C9.43771 18.8424 7.12294 16.9725 5.07246 14.7916C4.19833 13.8617 3.40778 12.8656 2.77524 11.7488C1.67919 9.81276 1.99686 7.95752 3.09011 6.16268C3.90571 4.82434 5.08393 3.95302 6.64748 3.66788C8.77778 3.28256 10.8313 4.31657 11.8527 6.27177C11.8948 6.35511 11.9367 6.43377 12.0055 6.56252Z" fill="#F4767A"/>
<path d="M12.0058 21.2221C11.8396 21.2223 11.6783 21.1675 11.5259 21.0598C8.67525 19.0204 6.48899 17.1572 4.64382 15.1945C3.63977 14.1267 2.86115 13.0944 2.2635 12.0386C1.14778 10.0686 1.25406 8.04625 2.58773 5.85695C3.51921 4.32922 4.84959 3.39797 6.54237 3.08943C6.87011 3.02996 7.20206 3 7.53003 3C9.31972 3 10.9797 3.90105 12.0079 5.39133C12.2066 5.10362 12.4215 4.8433 12.6556 4.60686C13.6616 3.5911 15.0783 3.00843 16.5426 3.00843C17.8089 3.00843 19.0306 3.44175 19.9825 4.22832C21.602 5.56596 22.4487 7.32616 22.4991 9.46021C22.5218 10.4364 22.1329 11.2988 21.7916 11.9412C20.9807 13.4675 19.8696 14.6949 18.8897 15.694C17.145 17.4711 15.0669 19.2121 12.5365 21.017L12.5208 21.0287C12.4372 21.0917 12.2633 21.2221 12.0058 21.2221ZM7.5298 4.17635C7.27182 4.17635 7.01033 4.19999 6.75235 4.24681C5.40464 4.49238 4.34136 5.2401 3.59248 6.46888C2.48542 8.2862 2.38827 9.87175 3.28722 11.4589C3.83805 12.4321 4.56189 13.3903 5.50062 14.3889C7.24771 16.2467 9.31808 18.0191 12.0018 19.9532C14.4104 18.2247 16.3888 16.5618 18.0495 14.87C18.9705 13.931 20.0117 12.783 20.7524 11.3892C21.0434 10.8412 21.3391 10.1866 21.3229 9.4876C21.2808 7.71031 20.5776 6.24579 19.2331 5.13522C18.4915 4.52235 17.5359 4.18478 16.5424 4.18478C15.3897 4.18478 14.2775 4.64033 13.4911 5.43463C13.1175 5.81153 12.8132 6.25234 12.5332 6.82214C12.4358 7.02019 12.2359 7.14707 12.0151 7.15058C12.0119 7.15082 12.0088 7.15082 12.0055 7.15082C11.7883 7.15082 11.5891 7.03119 11.4865 6.83946C11.4147 6.70556 11.3714 6.62316 11.3274 6.53654C10.5569 5.06148 9.13549 4.17635 7.5298 4.17635Z" fill="white"/>
<path d="M17.763 12.2425C17.6326 12.2425 17.5015 12.1992 17.3922 12.1107C17.1403 11.9059 17.1021 11.5355 17.307 11.2834C17.7356 10.7562 18.3817 9.19475 18.175 8.35714C18.1076 8.08465 17.9706 7.99475 17.859 7.94723C17.5605 7.81941 17.4219 7.47388 17.5495 7.17517C17.6771 6.87646 18.0233 6.73811 18.3213 6.86546C18.8312 7.0834 19.1751 7.50151 19.3169 8.07505C19.6449 9.4031 18.7904 11.3234 18.2197 12.0255C18.1036 12.1683 17.9339 12.2425 17.763 12.2425Z" fill="white"/>
<path d="M16.6515 14.071C16.4946 14.071 16.3472 14.0102 16.2371 13.9004C16.1248 13.788 16.0639 13.6405 16.0639 13.4837C16.0639 13.3292 16.1271 13.177 16.2371 13.067C16.4549 12.8493 16.8479 12.8493 17.0682 13.067C17.1782 13.1772 17.2412 13.3292 17.2412 13.4837C17.2412 13.6405 17.178 13.788 17.0682 13.9004C16.9558 14.0104 16.8083 14.071 16.6515 14.071Z" fill="white"/>
</svg>
