<svg width="64" height="64" viewBox="0 0 64 64" fill="none" xmlns="http://www.w3.org/2000/svg">
    <circle cx="31.9999" cy="32.75" r="21" fill="white"/>
    <path d="M50 42C46 51.5 31.9999 53.75 31.9999 53.75C20.402 53.75 10.9999 44.348 10.9999 32.75C10.9999 21.152 21 18 16.0001 20.5C27.5981 20.5 -3 43.75 50 42Z" fill="#008B7E"/>
    <circle cx="31.9999" cy="33" r="17" fill="#555659"/>
    <circle cx="31.9999" cy="33" r="16.5" stroke="black"/>
    <circle cx="31.9999" cy="32.75" r="20.5" stroke="black"/>
    <path d="M16.2499 13.9375C16.2499 13.5 12.7499 10 13.1874 10H25.8749C26.3124 10 25.4374 48.0625 25.8749 48.0625H48.1874C48.6249 48.0625 42.9374 54.625 42.4999 54.625H12.7499C12.3124 54.625 16.2499 50.6875 16.2499 50.25V13.9375Z" fill="#03DAC5"/>
    <path d="M13.1874 10L15.3749 12.625H23.2499V50.6875H45.9999L48.1874 48.0625H25.8749V10H13.1874Z" fill="white"/>
    <path d="M16.2839 13.9375C16.2839 13.5 12.7839 10 13.2214 10H25.9089C26.3464 10 25.4714 48.0625 25.9089 48.0625H48.2214C48.6589 48.0625 42.9714 54.625 42.5339 54.625H12.7839C12.3464 54.625 16.2839 50.6875 16.2839 50.25V13.9375Z" stroke="black"/>
</svg>
