<svg width="64" height="64" viewBox="0 0 64 64" fill="none" xmlns="http://www.w3.org/2000/svg">
<mask id="mask0_3076_316" style="mask-type:alpha" maskUnits="userSpaceOnUse" x="0" y="0" width="64" height="64">
<rect width="64" height="64" fill="#17181D"/>
</mask>
<g mask="url(#mask0_3076_316)">
</g>
<rect x="24" y="10" width="31" height="45" rx="3" fill="#03DAC5"/>
<path d="M16.5 11H24V54L17 54.5L14.5 52.5V13L16.5 11Z" fill="white"/>
<path d="M31.5 39C37.5175 33.7934 41.1302 33.7999 48 39L49 44H29L31.5 39Z" fill="#F7DA6E"/>
<circle cx="39.5" cy="26" r="5" fill="#F7DA6E"/>
<path d="M50.875 9.02084H18.2084C16.855 9.02209 15.5575 9.56024 14.6005 10.5172C13.6436 11.4741 13.1054 12.7717 13.1042 14.125V50.875C13.1054 52.2283 13.6436 53.5259 14.6005 54.4828C15.5575 55.4398 16.855 55.9779 18.2084 55.9792H50.875C52.2283 55.9779 53.5259 55.4398 54.4828 54.4828C55.4398 53.5259 55.9779 52.2283 55.9792 50.875V14.125C55.9779 12.7717 55.4398 11.4741 54.4828 10.5172C53.5259 9.56024 52.2283 9.02209 50.875 9.02084ZM53.9375 50.875C53.9366 51.687 53.6137 52.4654 53.0395 53.0395C52.4654 53.6136 51.687 53.9366 50.875 53.9375H18.2084C17.3964 53.9366 16.618 53.6136 16.0439 53.0395C15.4697 52.4654 15.1468 51.687 15.1459 50.875V14.125C15.1468 13.3131 15.4697 12.5346 16.0439 11.9605C16.618 11.3864 17.3964 11.0634 18.2084 11.0625H50.875C51.687 11.0634 52.4654 11.3864 53.0395 11.9605C53.6137 12.5346 53.9366 13.3131 53.9375 14.125V50.875Z" fill="black"/>
<path d="M16.1667 24.3333H12.0834C11.5419 24.3333 11.0226 24.5484 10.6397 24.9313C10.2568 25.3142 10.0417 25.8335 10.0417 26.375C10.0417 26.9165 10.2568 27.4358 10.6397 27.8187C11.0226 28.2016 11.5419 28.4167 12.0834 28.4167H16.1667C16.7082 28.4167 17.2275 28.2016 17.6104 27.8187C17.9932 27.4358 18.2084 26.9165 18.2084 26.375C18.2084 25.8335 17.9932 25.3142 17.6104 24.9313C17.2275 24.5484 16.7082 24.3333 16.1667 24.3333Z" fill="white"/>
<path d="M16.1666 23.3125H12.0833C11.2711 23.3125 10.4921 23.6352 9.9178 24.2095C9.34347 24.7838 9.02081 25.5628 9.02081 26.375C9.02081 27.1872 9.34347 27.9662 9.9178 28.5405C10.4921 29.1148 11.2711 29.4375 12.0833 29.4375H16.1666C16.9789 29.4375 17.7578 29.1148 18.3322 28.5405C18.9065 27.9662 19.2291 27.1872 19.2291 26.375C19.2291 25.5628 18.9065 24.7838 18.3322 24.2095C17.7578 23.6352 16.9789 23.3125 16.1666 23.3125ZM16.1666 27.3958H12.0833C11.8126 27.3958 11.5529 27.2883 11.3615 27.0968C11.17 26.9054 11.0625 26.6457 11.0625 26.375C11.0625 26.1043 11.17 25.8446 11.3615 25.6532C11.5529 25.4617 11.8126 25.3542 12.0833 25.3542H16.1666C16.4374 25.3542 16.697 25.4617 16.8885 25.6532C17.0799 25.8446 17.1875 26.1043 17.1875 26.375C17.1875 26.6457 17.0799 26.9054 16.8885 27.0968C16.697 27.2883 16.4374 27.3958 16.1666 27.3958Z" fill="black"/>
<path d="M16.1667 36.5833H12.0834C11.5419 36.5833 11.0226 36.7984 10.6397 37.1813C10.2568 37.5642 10.0417 38.0835 10.0417 38.625C10.0417 39.1665 10.2568 39.6858 10.6397 40.0687C11.0226 40.4516 11.5419 40.6667 12.0834 40.6667H16.1667C16.7082 40.6667 17.2275 40.4516 17.6104 40.0687C17.9932 39.6858 18.2084 39.1665 18.2084 38.625C18.2084 38.0835 17.9932 37.5642 17.6104 37.1813C17.2275 36.7984 16.7082 36.5833 16.1667 36.5833Z" fill="white"/>
<path d="M16.1666 35.5625H12.0833C11.2711 35.5625 10.4921 35.8852 9.9178 36.4595C9.34347 37.0338 9.02081 37.8128 9.02081 38.625C9.02081 39.4372 9.34347 40.2162 9.9178 40.7905C10.4921 41.3648 11.2711 41.6875 12.0833 41.6875H16.1666C16.9789 41.6875 17.7578 41.3648 18.3322 40.7905C18.9065 40.2162 19.2291 39.4372 19.2291 38.625C19.2291 37.8128 18.9065 37.0338 18.3322 36.4595C17.7578 35.8852 16.9789 35.5625 16.1666 35.5625ZM16.1666 39.6458H12.0833C11.8126 39.6458 11.5529 39.5383 11.3615 39.3468C11.17 39.1554 11.0625 38.8957 11.0625 38.625C11.0625 38.3543 11.17 38.0946 11.3615 37.9032C11.5529 37.7117 11.8126 37.6042 12.0833 37.6042H16.1666C16.4374 37.6042 16.697 37.7117 16.8885 37.9032C17.0799 38.0946 17.1875 38.3543 17.1875 38.625C17.1875 38.8957 17.0799 39.1554 16.8885 39.3468C16.697 39.5383 16.4374 39.6458 16.1666 39.6458Z" fill="black"/>
<path d="M16.1667 46.7917H12.0834C11.5419 46.7917 11.0226 47.0068 10.6397 47.3896C10.2568 47.7725 10.0417 48.2918 10.0417 48.8333C10.0417 49.3748 10.2568 49.8941 10.6397 50.277C11.0226 50.6599 11.5419 50.875 12.0834 50.875H16.1667C16.7082 50.875 17.2275 50.6599 17.6104 50.277C17.9932 49.8941 18.2084 49.3748 18.2084 48.8333C18.2084 48.2918 17.9932 47.7725 17.6104 47.3896C17.2275 47.0068 16.7082 46.7917 16.1667 46.7917Z" fill="white"/>
<path d="M16.1666 45.7708H12.0833C11.2711 45.7708 10.4921 46.0935 9.9178 46.6678C9.34347 47.2421 9.02081 48.0211 9.02081 48.8333C9.02081 49.6455 9.34347 50.4245 9.9178 50.9988C10.4921 51.5732 11.2711 51.8958 12.0833 51.8958H16.1666C16.9789 51.8958 17.7578 51.5732 18.3322 50.9988C18.9065 50.4245 19.2291 49.6455 19.2291 48.8333C19.2291 48.0211 18.9065 47.2421 18.3322 46.6678C17.7578 46.0935 16.9789 45.7708 16.1666 45.7708ZM16.1666 49.8541H12.0833C11.8126 49.8541 11.5529 49.7466 11.3615 49.5552C11.17 49.3637 11.0625 49.1041 11.0625 48.8333C11.0625 48.5626 11.17 48.3029 11.3615 48.1115C11.5529 47.92 11.8126 47.8125 12.0833 47.8125H16.1666C16.4374 47.8125 16.697 47.92 16.8885 48.1115C17.0799 48.3029 17.1875 48.5626 17.1875 48.8333C17.1875 49.1041 17.0799 49.3637 16.8885 49.5552C16.697 49.7466 16.4374 49.8541 16.1666 49.8541Z" fill="black"/>
<path d="M16.1667 14.125H12.0834C11.5419 14.125 11.0226 14.3401 10.6397 14.723C10.2568 15.1059 10.0417 15.6252 10.0417 16.1667C10.0417 16.7082 10.2568 17.2275 10.6397 17.6103C11.0226 17.9932 11.5419 18.2083 12.0834 18.2083H16.1667C16.7082 18.2083 17.2275 17.9932 17.6104 17.6103C17.9932 17.2275 18.2084 16.7082 18.2084 16.1667C18.2084 15.6252 17.9932 15.1059 17.6104 14.723C17.2275 14.3401 16.7082 14.125 16.1667 14.125Z" fill="white"/>
<path d="M16.1666 13.1042H12.0833C11.2711 13.1042 10.4921 13.4268 9.9178 14.0011C9.34347 14.5755 9.02081 15.3544 9.02081 16.1667C9.02081 16.9789 9.34347 17.7578 9.9178 18.3322C10.4921 18.9065 11.2711 19.2292 12.0833 19.2292H16.1666C16.9789 19.2292 17.7578 18.9065 18.3322 18.3322C18.9065 17.7578 19.2291 16.9789 19.2291 16.1667C19.2291 15.3544 18.9065 14.5755 18.3322 14.0011C17.7578 13.4268 16.9789 13.1042 16.1666 13.1042ZM16.1666 17.1875H12.0833C11.8126 17.1875 11.5529 17.0799 11.3615 16.8885C11.17 16.6971 11.0625 16.4374 11.0625 16.1667C11.0625 15.8959 11.17 15.6363 11.3615 15.4448C11.5529 15.2534 11.8126 15.1458 12.0833 15.1458H16.1666C16.4374 15.1458 16.697 15.2534 16.8885 15.4448C17.0799 15.6363 17.1875 15.8959 17.1875 16.1667C17.1875 16.4374 17.0799 16.6971 16.8885 16.8885C16.697 17.0799 16.4374 17.1875 16.1666 17.1875Z" fill="black"/>
<path d="M24.3333 9.02084C24.0626 9.02084 23.8029 9.1284 23.6115 9.31984C23.4201 9.51128 23.3125 9.77093 23.3125 10.0417V54.9583C23.3125 55.2291 23.4201 55.4887 23.6115 55.6802C23.8029 55.8716 24.0626 55.9792 24.3333 55.9792C24.6041 55.9792 24.8637 55.8716 25.0552 55.6802C25.2466 55.4887 25.3542 55.2291 25.3542 54.9583V10.0417C25.3542 9.77093 25.2466 9.51128 25.0552 9.31984C24.8637 9.1284 24.6041 9.02084 24.3333 9.02084Z" fill="black"/>
<path d="M39.5 32.5C40.7547 32.5 41.9812 32.1279 43.0244 31.4309C44.0676 30.7338 44.8807 29.7431 45.3609 28.5839C45.841 27.4247 45.9666 26.1492 45.7219 24.9186C45.4771 23.6881 44.8729 22.5577 43.9857 21.6705C43.0985 20.7834 41.9682 20.1792 40.7376 19.9344C39.507 19.6896 38.2315 19.8152 37.0724 20.2954C35.9132 20.7755 34.9224 21.5886 34.2254 22.6319C33.5283 23.6751 33.1562 24.9016 33.1562 26.1563C33.1562 27.8387 33.8246 29.4523 35.0143 30.642C36.204 31.8316 37.8175 32.5 39.5 32.5ZM39.5 21.625C40.3962 21.625 41.2723 21.8908 42.0174 22.3887C42.7626 22.8866 43.3434 23.5942 43.6863 24.4222C44.0293 25.2502 44.119 26.1613 43.9442 27.0403C43.7693 27.9192 43.3378 28.7266 42.7041 29.3603C42.0704 29.994 41.263 30.4256 40.384 30.6004C39.505 30.7753 38.5939 30.6855 37.766 30.3426C36.938 29.9996 36.2303 29.4188 35.7324 28.6737C35.2345 27.9285 34.9688 27.0524 34.9688 26.1563C34.9688 24.9545 35.4461 23.8019 36.2959 22.9522C37.1457 22.1024 38.2982 21.625 39.5 21.625Z" fill="black"/>
<path d="M40.4062 34.3125H38.5938C35.9499 34.3125 33.4143 35.3628 31.5448 37.2323C29.6753 39.1018 28.625 41.6374 28.625 44.2812C28.625 44.5216 28.7205 44.7521 28.8904 44.9221C29.0604 45.092 29.2909 45.1875 29.5312 45.1875H49.4688C49.7091 45.1875 49.9396 45.092 50.1096 44.9221C50.2795 44.7521 50.375 44.5216 50.375 44.2812C50.375 41.6374 49.3247 39.1018 47.4552 37.2323C45.5857 35.3628 43.0501 34.3125 40.4062 34.3125ZM30.4919 43.375C30.7147 41.3818 31.6641 39.5406 33.1587 38.2032C34.6532 36.8658 36.5882 36.126 38.5938 36.125H40.4062C42.4118 36.126 44.3468 36.8658 45.8413 38.2032C47.3359 39.5406 48.2853 41.3818 48.5081 43.375H30.4919Z" fill="black"/>
</svg>
