<svg width="64" height="64" viewBox="0 0 64 64" fill="none" xmlns="http://www.w3.org/2000/svg">
<mask id="mask0_3076_396" style="mask-type:alpha" maskUnits="userSpaceOnUse" x="0" y="0" width="64" height="64">
<rect width="64" height="64" fill="#17181D"/>
</mask>
<g mask="url(#mask0_3076_396)">
</g>
<path d="M12.5781 14.1719V20.5469H39.6719V41.2656C39.6719 43.3791 40.5114 45.406 42.0059 46.9004C43.5003 48.3948 45.5272 49.2344 47.6406 49.2344C49.7541 49.2344 51.781 48.3948 53.2754 46.9004C54.7698 45.406 55.6094 43.3791 55.6094 41.2656V14.1719H12.5781Z" fill="#008B7E"/>
<path d="M18.1562 18.1562V20.5469H39.6719V38.0781H43.6562V42.0625C43.6562 43.1192 44.076 44.1327 44.8232 44.8799C45.5705 45.6271 46.5839 46.0469 47.6406 46.0469C48.6973 46.0469 49.7108 45.6271 50.458 44.8799C51.2052 44.1327 51.625 43.1192 51.625 42.0625V18.1562H18.1562Z" fill="#03DAC5"/>
<path d="M39.6719 27.7188V41.2656C39.6719 42.9898 40.2311 44.6675 41.2656 46.0469H44.4531C45.2985 46.0469 46.1093 45.7111 46.707 45.1133C47.3048 44.5155 47.6406 43.7048 47.6406 42.8594V27.7188H39.6719Z" fill="#79BD9A"/>
<path d="M39.6719 23.7344V41.2656C39.6719 42.9898 40.2311 44.6675 41.2656 46.0469H47.6406C46.5839 46.0469 45.5705 45.6271 44.8232 44.8799C44.076 44.1327 43.6562 43.1192 43.6562 42.0625V23.7344H39.6719Z" fill="#03DAC5"/>
<path d="M41.2656 46.0469H24.5312C21.3611 46.0469 43.5073 48.2885 41.2656 46.0469C39.024 43.8052 39.2734 23.717 39.2734 20.5469H12.5781H9.39062V42.8594C9.39063 44.5501 10.0623 46.1716 11.2578 47.3672C12.4534 48.5627 14.0749 49.2344 15.7656 49.2344H47.6406C46.4035 49.2344 45.1834 48.9463 44.0769 48.3931C42.9704 47.8398 42.0079 47.0366 41.2656 46.0469Z" fill="white"/>
<path d="M24.5312 34.8906H13.375V44.4531H24.5312V34.8906Z" fill="#F7DA6E"/>
<path d="M13.375 30.1094V27.1131L15.0564 30.468C15.1226 30.5994 15.2239 30.7099 15.3491 30.7873C15.4743 30.8646 15.6184 30.9058 15.7656 30.9063C15.8265 30.914 15.888 30.914 15.9489 30.9063C16.1272 30.8642 16.2855 30.762 16.3973 30.6168C16.509 30.4717 16.5674 30.2925 16.5625 30.1094V23.7344C16.5625 23.523 16.4785 23.3203 16.3291 23.1709C16.1796 23.0215 15.9769 22.9375 15.7656 22.9375C15.5543 22.9375 15.3516 23.0215 15.2021 23.1709C15.0527 23.3203 14.9687 23.523 14.9687 23.7344V26.7306L13.2873 23.3758C13.2103 23.2124 13.08 23.08 12.9178 23.0004C12.7557 22.9207 12.5712 22.8986 12.3948 22.9375C12.2165 22.9796 12.0582 23.0818 11.9464 23.2269C11.8347 23.3721 11.7763 23.5513 11.7812 23.7344V30.1094C11.7812 30.3207 11.8652 30.5234 12.0146 30.6729C12.1641 30.8223 12.3668 30.9063 12.5781 30.9063C12.7894 30.9063 12.9921 30.8223 13.1416 30.6729C13.291 30.5234 13.375 30.3207 13.375 30.1094Z" fill="#03DAC5"/>
<path d="M18.9531 30.9062H22.1406C22.352 30.9062 22.5547 30.8223 22.7041 30.6729C22.8535 30.5234 22.9375 30.3207 22.9375 30.1094C22.9375 29.898 22.8535 29.6953 22.7041 29.5459C22.5547 29.3965 22.352 29.3125 22.1406 29.3125H19.75V27.7188H22.1406C22.352 27.7188 22.5547 27.6348 22.7041 27.4854C22.8535 27.3359 22.9375 27.1332 22.9375 26.9219C22.9375 26.7105 22.8535 26.5078 22.7041 26.3584C22.5547 26.209 22.352 26.125 22.1406 26.125H19.75V24.5312H22.1406C22.352 24.5312 22.5547 24.4473 22.7041 24.2979C22.8535 24.1484 22.9375 23.9457 22.9375 23.7344C22.9375 23.523 22.8535 23.3203 22.7041 23.1709C22.5547 23.0215 22.352 22.9375 22.1406 22.9375H18.9531C18.7418 22.9375 18.5391 23.0215 18.3896 23.1709C18.2402 23.3203 18.1562 23.523 18.1562 23.7344V30.1094C18.1562 30.3207 18.2402 30.5234 18.3896 30.6729C18.5391 30.8223 18.7418 30.9062 18.9531 30.9062Z" fill="#03DAC5"/>
<path d="M29.3603 30.3883C29.4173 30.5408 29.5196 30.6722 29.6535 30.7648C29.7875 30.8574 29.9465 30.9068 30.1093 30.9062H30.2528C30.4384 30.8723 30.606 30.7736 30.7256 30.6277C30.8453 30.4817 30.9093 30.2981 30.9062 30.1094V23.7344C30.9062 23.523 30.8223 23.3203 30.6728 23.1709C30.5234 23.0215 30.3207 22.9375 30.1093 22.9375C29.898 22.9375 29.6953 23.0215 29.5459 23.1709C29.3964 23.3203 29.3125 23.523 29.3125 23.7344V25.7186L28.4678 23.4555C28.4119 23.3016 28.3101 23.1687 28.1761 23.0748C28.0421 22.9809 27.8824 22.9305 27.7187 22.9305C27.5551 22.9305 27.3954 22.9809 27.2614 23.0748C27.1273 23.1687 27.0255 23.3016 26.9697 23.4555L26.125 25.7186V23.7344C26.125 23.523 26.041 23.3203 25.8916 23.1709C25.7421 23.0215 25.5394 22.9375 25.3281 22.9375C25.1168 22.9375 24.9141 23.0215 24.7646 23.1709C24.6152 23.3203 24.5312 23.523 24.5312 23.7344V30.1094C24.5295 30.2974 24.5944 30.48 24.7143 30.6248C24.8343 30.7696 25.0015 30.8673 25.1866 30.9007C25.3716 30.9341 25.5625 30.901 25.7255 30.8072C25.8885 30.7134 26.013 30.565 26.0772 30.3883L27.7187 26.0055L29.3603 30.3883Z" fill="#03DAC5"/>
<path d="M34.8906 24.5313C35.102 24.5313 35.3047 24.6152 35.4541 24.7646C35.6035 24.9141 35.6875 25.1168 35.6875 25.3281C35.6875 25.5395 35.7715 25.7422 35.9209 25.8916C36.0703 26.041 36.273 26.125 36.4844 26.125C36.6957 26.125 36.8984 26.041 37.0479 25.8916C37.1973 25.7422 37.2813 25.5395 37.2813 25.3281C37.2813 24.8553 37.141 24.3931 36.8784 24C36.6157 23.6068 36.2423 23.3004 35.8055 23.1195C35.3686 22.9385 34.888 22.8912 34.4242 22.9834C33.9605 23.0757 33.5345 23.3034 33.2002 23.6377C32.8659 23.972 32.6382 24.398 32.5459 24.8617C32.4537 25.3255 32.501 25.8061 32.682 26.243C32.8629 26.6798 33.1693 27.0532 33.5625 27.3159C33.9556 27.5785 34.4178 27.7188 34.8906 27.7188C35.0482 27.7188 35.2023 27.7655 35.3333 27.853C35.4644 27.9406 35.5665 28.0651 35.6268 28.2107C35.6872 28.3563 35.7029 28.5165 35.6722 28.6711C35.6414 28.8257 35.5655 28.9677 35.4541 29.0791C35.3427 29.1905 35.2007 29.2664 35.0461 29.2972C34.8915 29.3279 34.7313 29.3122 34.5857 29.2518C34.4401 29.1915 34.3156 29.0894 34.228 28.9583C34.1405 28.8273 34.0938 28.6732 34.0938 28.5156C34.0938 28.3043 34.0098 28.1016 33.8604 27.9521C33.7109 27.8027 33.5082 27.7188 33.2969 27.7188C33.0855 27.7188 32.8828 27.8027 32.7334 27.9521C32.584 28.1016 32.5 28.3043 32.5 28.5156C32.5 28.9884 32.6402 29.4506 32.9029 29.8438C33.1656 30.2369 33.5389 30.5433 33.9758 30.7243C34.4126 30.9052 34.8933 30.9526 35.357 30.8603C35.8207 30.7681 36.2467 30.5404 36.5811 30.2061C36.9154 29.8717 37.1431 29.4458 37.2353 28.982C37.3276 28.5183 37.2802 28.0376 37.0993 27.6008C36.9183 27.1639 36.6119 26.7906 36.2188 26.5279C35.8256 26.2652 35.3634 26.125 34.8906 26.125C34.6793 26.125 34.4766 26.041 34.3271 25.8916C34.1777 25.7422 34.0938 25.5395 34.0938 25.3281C34.0938 25.1168 34.1777 24.9141 34.3271 24.7646C34.4766 24.6152 34.6793 24.5313 34.8906 24.5313Z" fill="#03DAC5"/>
<path d="M24.5312 34.0938H13.375C13.1637 34.0938 12.961 34.1777 12.8115 34.3271C12.6621 34.4766 12.5781 34.6793 12.5781 34.8906V44.4531C12.5781 44.6645 12.6621 44.8672 12.8115 45.0166C12.961 45.166 13.1637 45.25 13.375 45.25H24.5312C24.7426 45.25 24.9453 45.166 25.0947 45.0166C25.2442 44.8672 25.3281 44.6645 25.3281 44.4531V34.8906C25.3281 34.6793 25.2442 34.4766 25.0947 34.3271C24.9453 34.1777 24.7426 34.0938 24.5312 34.0938ZM23.7344 43.6562H14.1719V35.6875H23.7344V43.6562Z" fill="#03DAC5"/>
<path d="M36.4844 34.0938H31.7031C31.4918 34.0938 31.2891 34.1777 31.1396 34.3271C30.9902 34.4766 30.9062 34.6793 30.9062 34.8906C30.9062 35.102 30.9902 35.3047 31.1396 35.4541C31.2891 35.6035 31.4918 35.6875 31.7031 35.6875H36.4844C36.6957 35.6875 36.8984 35.6035 37.0479 35.4541C37.1973 35.3047 37.2812 35.102 37.2812 34.8906C37.2812 34.6793 37.1973 34.4766 37.0479 34.3271C36.8984 34.1777 36.6957 34.0938 36.4844 34.0938Z" fill="#03DAC5"/>
<path d="M36.4844 37.2812H28.5156C28.3043 37.2812 28.1016 37.3652 27.9521 37.5146C27.8027 37.6641 27.7188 37.8668 27.7188 38.0781C27.7188 38.2895 27.8027 38.4922 27.9521 38.6416C28.1016 38.791 28.3043 38.875 28.5156 38.875H36.4844C36.6957 38.875 36.8984 38.791 37.0479 38.6416C37.1973 38.4922 37.2812 38.2895 37.2812 38.0781C37.2812 37.8668 37.1973 37.6641 37.0479 37.5146C36.8984 37.3652 36.6957 37.2812 36.4844 37.2812Z" fill="#03DAC5"/>
<path d="M36.4844 40.4688H28.5156C28.3043 40.4688 28.1016 40.5527 27.9521 40.7021C27.8027 40.8516 27.7188 41.0543 27.7188 41.2656C27.7188 41.477 27.8027 41.6797 27.9521 41.8291C28.1016 41.9785 28.3043 42.0625 28.5156 42.0625H36.4844C36.6957 42.0625 36.8984 41.9785 37.0479 41.8291C37.1973 41.6797 37.2812 41.477 37.2812 41.2656C37.2812 41.0543 37.1973 40.8516 37.0479 40.7021C36.8984 40.5527 36.6957 40.4688 36.4844 40.4688Z" fill="#03DAC5"/>
<path d="M32.5 43.6562H28.5156C28.3043 43.6562 28.1016 43.7402 27.9521 43.8896C27.8027 44.0391 27.7188 44.2418 27.7188 44.4531C27.7188 44.6645 27.8027 44.8672 27.9521 45.0166C28.1016 45.166 28.3043 45.25 28.5156 45.25H32.5C32.7113 45.25 32.914 45.166 33.0635 45.0166C33.2129 44.8672 33.2969 44.6645 33.2969 44.4531C33.2969 44.2418 33.2129 44.0391 33.0635 43.8896C32.914 43.7402 32.7113 43.6562 32.5 43.6562Z" fill="#03DAC5"/>
<path d="M55.6094 13.375H12.5781C12.3668 13.375 12.1641 13.459 12.0146 13.6084C11.8652 13.7578 11.7812 13.9605 11.7812 14.1719V19.75H9.39062C9.17928 19.75 8.97659 19.834 8.82715 19.9834C8.67771 20.1328 8.59375 20.3355 8.59375 20.5469V42.8594C8.59375 44.7615 9.34936 46.5857 10.6943 47.9307C12.0393 49.2756 13.8635 50.0312 15.7656 50.0312H47.6406C49.9654 50.0312 52.195 49.1077 53.8389 47.4639C55.4827 45.82 56.4062 43.5904 56.4062 41.2656V14.1719C56.4062 13.9605 56.3223 13.7578 56.1729 13.6084C56.0234 13.459 55.8207 13.375 55.6094 13.375ZM15.7656 48.4375C14.2862 48.4375 12.8674 47.8498 11.8213 46.8037C10.7752 45.7576 10.1875 44.3388 10.1875 42.8594V21.3438H38.875V41.2656C38.8772 42.674 39.2187 44.0611 39.8707 45.3095C40.5226 46.5579 41.4658 47.6309 42.6203 48.4375H15.7656ZM44.4531 28.5156H46.8438V44.3416C46.1612 44.1653 45.5564 43.7679 45.1238 43.2113C44.6913 42.6547 44.4554 41.9705 44.4531 41.2656V28.5156ZM47.6406 26.9219H44.4531V23.7344C44.4531 23.523 44.3692 23.3203 44.2197 23.1709C44.0703 23.0215 43.8676 22.9375 43.6562 22.9375H40.4688V20.5469C40.4688 20.3355 40.3848 20.1328 40.2354 19.9834C40.0859 19.834 39.8832 19.75 39.6719 19.75H18.9531V18.1562H50.8281V41.2656C50.8258 41.9705 50.59 42.6547 50.1574 43.2113C49.7248 43.7679 49.12 44.1653 48.4375 44.3416V27.7188C48.4375 27.5074 48.3535 27.3047 48.2041 27.1553C48.0547 27.0058 47.852 26.9219 47.6406 26.9219ZM54.8125 41.2656C54.8125 43.1677 54.0569 44.9919 52.7119 46.3369C51.3669 47.6819 49.5427 48.4375 47.6406 48.4375C45.7385 48.4375 43.9143 47.6819 42.5693 46.3369C41.2244 44.9919 40.4688 43.1677 40.4688 41.2656V24.5312H42.8594V41.2656C42.8594 42.5337 43.3631 43.7498 44.2598 44.6465C45.1564 45.5431 46.3726 46.0469 47.6406 46.0469C48.9087 46.0469 50.1248 45.5431 51.0215 44.6465C51.9181 43.7498 52.4219 42.5337 52.4219 41.2656V17.3594C52.4219 17.148 52.3379 16.9453 52.1885 16.7959C52.039 16.6465 51.8363 16.5625 51.625 16.5625H18.1562C17.9449 16.5625 17.7422 16.6465 17.5928 16.7959C17.4433 16.9453 17.3594 17.148 17.3594 17.3594V19.75H13.375V14.9688H54.8125V41.2656Z" fill="black"/>
</svg>
