<svg width="24" height="24" viewBox="0 0 24 24" fill="none" xmlns="http://www.w3.org/2000/svg">
<path fill-rule="evenodd" clip-rule="evenodd" d="M16 1C11.582 1 8 4.582 8 9C8 9.585 8.063 10.155 8.182 10.704L0 18V23H6V21H8V19H10L13.066 16.444C13.975 16.803 14.964 17 16 17C20.418 17 24 13.418 24 9C24 4.582 20.418 1 16 1ZM9.638 18L12.882 15.297C13.299 15.461 14.395 16 16 16C19.859 16 23 12.86 23 9C23 5.14 19.859 2 16 2C12.14 2 9 5.14 9 9C9 9.853 9.139 10.398 9.283 11.062L1 18.448V22H5V20H7V18H9.638ZM9.806 14L9.139 13.255L2 19.657V21L9.806 14ZM20 7C20 5.896 19.104 5 18 5C16.896 5 16 5.896 16 7C16 8.104 16.896 9 18 9C19.104 9 20 8.104 20 7ZM19 7C19 6.448 18.552 6 18 6C17.448 6 17 6.448 17 7C17 7.552 17.448 8 18 8C18.552 8 19 7.552 19 7Z" fill="white"/>
</svg>
