<svg width="24" height="24" viewBox="0 0 24 24" fill="none" xmlns="http://www.w3.org/2000/svg">
<path d="M22.9042 17.4136C21.9089 16.3909 19.0797 14.475 17.2254 14.475C16.7959 14.475 16.421 14.5705 16.1142 14.7682C15.2075 15.3477 14.4849 15.7977 14.1372 15.7977C13.9463 15.7977 13.7418 15.6273 13.2918 15.2386L13.2169 15.1705C11.9693 14.0864 11.7034 13.8068 11.2194 13.3023L11.0967 13.1727C11.0081 13.0841 10.9331 13.0023 10.8581 12.9273C10.4354 12.4909 10.1286 12.1773 9.04468 10.95L8.99696 10.8955C8.47884 10.3091 8.13798 9.92727 8.11753 9.64773C8.09708 9.375 8.33568 8.93182 8.94242 8.10682C9.67869 7.11136 9.70595 5.88409 9.03104 4.45909C8.49248 3.33409 7.61305 2.25682 6.83588 1.30909L6.7677 1.22727C6.09961 0.409091 5.32244 0 4.45665 0C3.49541 0 2.69779 0.518182 2.27512 0.790909C2.24103 0.811364 2.20694 0.838636 2.17286 0.859091C1.22525 1.45909 0.536707 2.28409 0.277651 3.12273C-0.110934 4.38409 -0.369991 6.02046 1.49113 9.42273C3.10001 12.3682 4.55891 14.3455 6.87678 16.725C9.05831 18.9614 10.0264 19.6841 12.1943 21.2523C14.6076 22.9977 16.9255 24 18.548 24C20.0546 24 21.2408 24 22.9315 21.9614C24.704 19.8205 23.9677 18.5114 22.9042 17.4136ZM22.1202 21.225C20.7568 22.875 19.9728 22.875 18.5548 22.875C17.1709 22.875 15.0234 21.9205 12.8146 20.3318C10.7013 18.8045 9.76049 18.1023 7.64032 15.9273C5.39743 13.6295 3.98625 11.7136 2.43191 8.87045C0.788947 5.86364 0.973014 4.54773 1.30706 3.46364C1.48431 2.88409 2.01606 2.26364 2.73869 1.81364C2.77278 1.79318 2.80686 1.76591 2.84777 1.74545C3.20908 1.51364 3.809 1.125 4.46346 1.125C5.00885 1.125 5.49287 1.39773 5.95645 1.96364L6.02462 2.04545C7.76303 4.17273 9.11967 6.05455 8.09708 7.44546C7.37444 8.42045 6.99268 9.08182 7.05403 9.76364C7.10857 10.425 7.55169 10.9227 8.21979 11.6727L8.26751 11.7273C9.36509 12.9682 9.67869 13.2955 10.115 13.7386C10.19 13.8136 10.265 13.8955 10.3536 13.9841L10.4763 14.1136C10.9808 14.6386 11.2603 14.925 12.5419 16.05L12.6169 16.1182C13.1623 16.5955 13.5645 16.9432 14.1508 16.9432C14.7576 16.9432 15.4257 16.5614 16.6937 15.75C16.8232 15.6682 17.0073 15.6205 17.2391 15.6205C18.7184 15.6205 21.2681 17.3114 22.1611 18.2318C22.9792 19.0636 23.3882 19.6909 22.1202 21.225Z" fill="white"/>
</svg>
