<svg width="64" height="64" viewBox="0 0 64 64" fill="none" xmlns="http://www.w3.org/2000/svg">
<mask id="mask0_3076_370" style="mask-type:alpha" maskUnits="userSpaceOnUse" x="0" y="0" width="64" height="64">
<rect width="64" height="64" fill="#17181D"/>
</mask>
<g mask="url(#mask0_3076_370)">
</g>
<path d="M20.4644 18.959H44.5356L49.0069 52.9375H15.9931L20.4644 18.959Z" fill="white"/>
<path d="M38.1044 18.959L42.5909 52.9375H49.0069L44.5356 18.959H38.1044Z" fill="#C4C4C4"/>
<path d="M45.5922 26.9828H19.2547L17.019 45.0975H47.9809L45.5922 26.9828Z" fill="#03DAC5"/>
<path d="M39.1609 26.9828L41.5497 45.0975H47.981L45.5922 26.9828H39.1609Z" fill="#00BAA8"/>
<path d="M15.9931 54.0859H49.0069C49.1724 54.0864 49.3362 54.0511 49.4868 53.9824C49.6375 53.9137 49.7715 53.8132 49.8797 53.6878C49.9846 53.5639 50.0632 53.4198 50.1106 53.2645C50.158 53.1091 50.1732 52.9458 50.1553 52.7844L45.6687 18.8059C45.6318 18.5312 45.4967 18.2791 45.2885 18.0962C45.0802 17.9133 44.8128 17.8118 44.5356 17.8106H39.2528V15.6516C39.2528 13.8606 38.5413 12.143 37.2749 10.8766C36.0085 9.6102 34.2909 8.89874 32.5 8.89874C30.709 8.89874 28.9914 9.6102 27.725 10.8766C26.4586 12.143 25.7472 13.8606 25.7472 15.6516V17.8106H20.4644C20.1872 17.8118 19.9198 17.9133 19.7115 18.0962C19.5033 18.2791 19.3682 18.5312 19.3312 18.8059L14.8447 52.7844C14.8268 52.9458 14.842 53.1091 14.8894 53.2645C14.9368 53.4198 15.0153 53.5639 15.1203 53.6878C15.2285 53.8132 15.3625 53.9137 15.5131 53.9824C15.6638 54.0511 15.8275 54.0864 15.9931 54.0859ZM17.2947 51.7891L18.0297 46.2459H46.9703L47.7053 51.7891H17.2947ZM20.3572 28.1312H44.5816L46.6641 43.9491H18.3359L20.3572 28.1312ZM28.0134 15.6516C28.0134 14.4698 28.4829 13.3364 29.3185 12.5007C30.1542 11.6651 31.2876 11.1956 32.4694 11.1956C33.6511 11.1956 34.7845 11.6651 35.6202 12.5007C36.4558 13.3364 36.9253 14.4698 36.9253 15.6516V17.8106H28.044L28.0134 15.6516ZM25.7165 20.1075V21.6387C25.7165 21.9433 25.8375 22.2354 26.0529 22.4508C26.2683 22.6662 26.5604 22.7872 26.865 22.7872C27.1696 22.7872 27.4617 22.6662 27.6771 22.4508C27.8924 22.2354 28.0134 21.9433 28.0134 21.6387V20.1075H36.9253V21.6387C36.9253 21.9433 37.0463 22.2354 37.2617 22.4508C37.477 22.6662 37.7692 22.7872 38.0737 22.7872C38.3783 22.7872 38.6704 22.6662 38.8858 22.4508C39.1012 22.2354 39.2222 21.9433 39.2222 21.6387V20.1075H43.525L44.2753 25.8344H20.7247L21.475 20.1075H25.7165Z" fill="black"/>
<path d="M38.9006 50.0434C39.5349 50.0434 40.0491 49.5293 40.0491 48.895C40.0491 48.2607 39.5349 47.7466 38.9006 47.7466C38.2664 47.7466 37.7522 48.2607 37.7522 48.895C37.7522 49.5293 38.2664 50.0434 38.9006 50.0434Z" fill="#23232B"/>
<path d="M34.6437 50.0434C35.278 50.0434 35.7922 49.5293 35.7922 48.895C35.7922 48.2607 35.278 47.7466 34.6437 47.7466C34.0095 47.7466 33.4953 48.2607 33.4953 48.895C33.4953 49.5293 34.0095 50.0434 34.6437 50.0434Z" fill="#23232B"/>
<path d="M30.3715 50.0434C31.0058 50.0434 31.52 49.5293 31.52 48.895C31.52 48.2607 31.0058 47.7466 30.3715 47.7466C29.7373 47.7466 29.2231 48.2607 29.2231 48.895C29.2231 49.5293 29.7373 50.0434 30.3715 50.0434Z" fill="#23232B"/>
<path d="M26.1147 47.7466C25.8101 47.7466 25.518 47.8675 25.3026 48.0829C25.0872 48.2983 24.9662 48.5904 24.9662 48.895C24.9662 49.1996 25.0872 49.4917 25.3026 49.7071C25.518 49.9224 25.8101 50.0434 26.1147 50.0434C26.4193 50.0434 26.7114 49.9224 26.9268 49.7071C27.1421 49.4917 27.2631 49.1996 27.2631 48.895C27.2631 48.5904 27.1421 48.2983 26.9268 48.0829C26.7114 47.8675 26.4193 47.7466 26.1147 47.7466Z" fill="#23232B"/>
<path d="M28.6316 35.7982L30.8884 34.429L32.0702 32.7894L34.405 34.8725L36.5639 35.2498L35.2296 37.4982L35.0974 40.2135L32.5 39.6666L31.4252 40.1707L29.4912 40.2135L29.921 37.9473L28.6316 35.7982Z" fill="#F7DA6E"/>
<path d="M32.3709 40.2327C32.3722 40.232 32.3737 40.2316 32.3752 40.2316C32.3767 40.2316 32.3781 40.2319 32.3794 40.2326L33.7164 40.9018C33.9494 41.0184 34.2103 41.0674 34.4696 41.0435C34.729 41.0195 34.9765 40.9235 35.1841 40.7662C35.3918 40.6089 35.5513 40.3967 35.6446 40.1535C35.7379 39.9103 35.7613 39.6458 35.7122 39.39L35.4301 37.9218C35.4298 37.9203 35.4299 37.9189 35.4303 37.9174C35.4308 37.916 35.4315 37.9147 35.4326 37.9137L36.4822 36.849C36.665 36.6635 36.7924 36.4306 36.8497 36.1765C36.9071 35.9224 36.8922 35.6573 36.8068 35.4112C36.7214 35.1651 36.5688 34.9479 36.3664 34.784C36.1639 34.6201 35.9196 34.5161 35.6611 34.4838L34.1776 34.2983C34.1761 34.2981 34.1747 34.2976 34.1735 34.2967C34.1723 34.2959 34.1713 34.2947 34.1707 34.2934L33.4824 32.9662C33.3625 32.735 33.1803 32.5419 32.9563 32.4089C32.7324 32.2758 32.4757 32.208 32.2153 32.2132C31.9549 32.2184 31.7011 32.2963 31.4827 32.4382C31.2642 32.5801 31.0898 32.7803 30.9792 33.0161L30.3445 34.3697C30.3439 34.371 30.3429 34.3722 30.3417 34.3731C30.3405 34.374 30.3391 34.3746 30.3376 34.3749L28.8627 34.6193C28.6054 34.6613 28.3649 34.7746 28.1687 34.9464C27.9725 35.1181 27.8284 35.3415 27.7528 35.591C27.6772 35.8406 27.6731 36.1064 27.7409 36.3582C27.8088 36.6099 27.9459 36.8376 28.1367 37.0154L29.2279 38.0374C29.229 38.0384 29.2298 38.0397 29.2303 38.0411C29.2308 38.0425 29.2309 38.044 29.2307 38.0454L29.0073 39.5237C28.9684 39.7813 29.0023 40.0446 29.1053 40.2839C29.2082 40.5231 29.376 40.7289 29.5898 40.8777C29.8035 41.0266 30.0546 41.1127 30.3148 41.1263C30.5749 41.1399 30.8336 41.0805 31.0617 40.9547L32.3709 40.2327ZM32.8973 39.1978C32.7283 39.1131 32.5411 39.0709 32.3521 39.0747C32.163 39.0785 31.9778 39.1282 31.8122 39.2195L30.503 39.9414C30.4639 39.963 30.4197 39.9731 30.3751 39.9708C30.3306 39.9685 30.2877 39.9537 30.2511 39.9283C30.2145 39.9028 30.1858 39.8676 30.1682 39.8266C30.1506 39.7857 30.1448 39.7407 30.1515 39.6966L30.3748 38.2183C30.4031 38.0313 30.3854 37.8403 30.3234 37.6617C30.2614 37.483 30.1569 37.3222 30.0189 37.1929L28.9277 36.1709C28.8952 36.1404 28.8718 36.1015 28.8603 36.0584C28.8487 36.0154 28.8494 35.97 28.8624 35.9273C28.8753 35.8846 28.8999 35.8465 28.9334 35.8171C28.9669 35.7877 29.0079 35.7682 29.0519 35.7609L30.5268 35.5164C30.7134 35.4855 30.8896 35.4097 31.0403 35.2955C31.1911 35.1814 31.3118 35.0322 31.3921 34.861L32.0269 33.5074C32.0458 33.4671 32.0756 33.4329 32.113 33.4086C32.1504 33.3843 32.1938 33.371 32.2384 33.3701C32.2829 33.3692 32.3268 33.3808 32.3651 33.4036C32.4035 33.4264 32.4346 33.4594 32.4552 33.4989L33.1434 34.8261C33.2304 34.994 33.357 35.1382 33.5121 35.2463C33.6673 35.3544 33.8464 35.4231 34.0341 35.4465L35.5176 35.632C35.5618 35.6375 35.6036 35.6553 35.6382 35.6833C35.6729 35.7114 35.699 35.7485 35.7136 35.7906C35.7282 35.8328 35.7308 35.8781 35.721 35.9216C35.7112 35.9651 35.6894 36.0049 35.6581 36.0367L34.6085 37.1014C34.4757 37.236 34.3777 37.4009 34.3229 37.5819C34.268 37.7629 34.258 37.9545 34.2937 38.1402L34.5757 39.6084C34.5841 39.6521 34.5801 39.6974 34.5642 39.739C34.5482 39.7806 34.5209 39.8169 34.4854 39.8438C34.4499 39.8707 34.4076 39.8872 34.3632 39.8913C34.3188 39.8954 34.2742 39.887 34.2343 39.8671L32.8973 39.1978Z" fill="black"/>
</svg>
