<svg width="64" height="64" viewBox="0 0 64 64" fill="none" xmlns="http://www.w3.org/2000/svg">
<mask id="mask0_3076_358" style="mask-type:alpha" maskUnits="userSpaceOnUse" x="0" y="0" width="64" height="64">
<rect width="64" height="64" fill="#17181D"/>
</mask>
<g mask="url(#mask0_3076_358)">
</g>
<path d="M16.6211 21.5143L53.9793 17.409L55.6214 19.0511V21.9248V23.9775L52.7477 26.4407L51.9267 30.546L54.3898 33.4197L56.853 34.2407L57.6741 39.9881L53.5688 41.6303L48.6424 42.0408L47.8214 39.1671L46.1792 38.7566L44.5371 37.1144L43.7161 34.2407L44.5371 31.7775L48.2319 29.3144V23.9775L47.4108 22.7459L16.6211 22.3354V21.5143Z" fill="#008B7E"/>
<path d="M10.4632 22.3354L39.2003 22.7459V46.5566H19.0843H10.4632L8.41052 45.325V39.5776C11.2883 38.9576 12.3377 38.0287 13.3369 35.4723C12.9562 31.684 11.8111 30.3949 8.41052 29.3144V23.5669L10.4632 22.3354Z" fill="#03DAC5"/>
<path d="M39 23H48L48.5 29.5C45.8425 29.2192 41.274 34.3715 45.5 38C46.5713 39.2085 47.2276 39.5225 48.5 39.5L48 46L44 46.5L39 46V23Z" fill="white"/>
<path d="M39.1838 38.5184C38.9539 38.5184 38.7733 38.6991 38.7733 38.929V40.1688C38.7733 40.3987 38.9539 40.5793 39.1838 40.5793C39.4137 40.5793 39.5944 40.3987 39.5944 40.1688V38.929C39.5944 38.6991 39.4137 38.5184 39.1838 38.5184Z" fill="black"/>
<path d="M58.0682 38.9865L57.4689 33.6003L57.0994 33.6085C54.7758 33.666 52.797 31.9089 52.5343 29.5771C52.2715 27.2453 53.8069 25.1188 56.0977 24.6343L56.459 24.5604L55.8596 19.1743C55.7036 17.836 54.4966 16.8671 53.1583 17.0149L17.4997 20.997C16.7361 21.0791 16.0874 21.5225 15.6933 22.1711H10.4468C9.10022 22.1629 8 23.2632 8 24.6097V30.0369L8.40232 30.0451C10.8819 30.1026 12.8278 32.0978 12.8278 34.5774C12.8278 37.057 10.8819 39.0521 8.40232 39.1096L8 39.126V44.5532C8 45.8998 9.10022 47 10.4468 47H46.3271C47.6736 47 48.7738 45.8998 48.7738 44.5532V42.4924L55.9171 41.696C56.5657 41.6221 57.1486 41.3018 57.5592 40.7928C57.9615 40.2755 58.1421 39.6351 58.0682 38.9865ZM47.9528 44.5532C47.9528 45.4482 47.222 46.1789 46.3271 46.1789H39.5944V43.2724C39.5944 43.0425 39.4137 42.8619 39.1839 42.8619C38.954 42.8619 38.7733 43.0425 38.7733 43.2724V46.1707H10.4468C9.5518 46.1789 8.82106 45.4482 8.82106 44.5532V39.9143C11.5634 39.6515 13.6489 37.3772 13.6489 34.5856C13.6489 31.7858 11.5552 29.5196 8.82106 29.2569V24.6097C8.82106 23.7147 9.5518 22.984 10.4468 22.984H38.7733V36.0306C38.7733 36.2605 38.954 36.4412 39.1839 36.4412C39.4137 36.4412 39.5944 36.2605 39.5944 36.0306V22.984H46.3271C47.222 22.984 47.9528 23.7147 47.9528 24.6097V29.2979C45.3829 29.7249 43.4944 31.9418 43.4944 34.5856C43.4944 37.2294 45.3911 39.438 47.9528 39.8732V44.5532ZM56.9105 40.2755C56.6396 40.6122 56.2537 40.8256 55.8185 40.8749L48.7738 41.6631V39.1342L48.4044 39.1014C46.0725 38.8715 44.3155 36.9338 44.3155 34.5856C44.3155 32.2373 46.0725 30.2996 48.4044 30.0697L48.7738 30.0369V24.6179C48.7738 23.2714 47.6736 22.1711 46.3271 22.1711H16.7525C16.9906 21.9823 17.2698 21.8509 17.59 21.8181L53.2486 17.836C54.1436 17.7292 54.94 18.3779 55.0467 19.2728L55.564 23.9282C53.0598 24.6425 51.4259 27.0482 51.7132 29.6756C52.0006 32.303 54.1353 34.29 56.7299 34.4296L57.2472 39.085C57.3046 39.5119 57.1815 39.9389 56.9105 40.2755Z" fill="black"/>
<path d="M21.5 33.5L24.6227 31.8818L26.9348 30.1058L28.7108 32.4179L31.22 32.8693L29.655 35.4771L29.4855 38.6348L27.1595 37.7183L25.2141 38.5639L23 38.6348L24.0866 35.9699L21.5 33.5Z" fill="#F7DA6E"/>
<path d="M26.3138 38.6415L26.3188 38.6403L26.3237 38.6414L27.8751 39.4275C28.1454 39.5645 28.4486 39.6231 28.7505 39.5967C29.0523 39.5703 29.3408 39.46 29.5832 39.2783C29.8257 39.0965 30.0124 38.8505 30.1224 38.5682C30.2323 38.2858 30.2611 37.9783 30.2054 37.6805L29.8857 35.9709L29.886 35.9659L29.8886 35.9615L31.1157 34.7291C31.3295 34.5144 31.4789 34.2441 31.5471 33.9488C31.6153 33.6536 31.5995 33.3452 31.5016 33.0584C31.4036 32.7717 31.2274 32.518 30.9928 32.3262C30.7583 32.1344 30.4747 32.012 30.1742 31.973L28.4496 31.7487L28.4448 31.7468L28.4415 31.743L27.6485 30.1952C27.5104 29.9255 27.2995 29.6999 27.0398 29.5438C26.7801 29.3877 26.4819 29.3074 26.1789 29.3119C25.8759 29.3164 25.5803 29.4057 25.3254 29.5695C25.0704 29.7333 24.8664 29.9651 24.7364 30.2388L23.9903 31.8096L23.987 31.8136L23.9823 31.8157L22.2652 32.0916C21.9656 32.1389 21.6852 32.2693 21.456 32.468C21.2268 32.6667 21.0579 32.9257 20.9685 33.2155C20.8791 33.5054 20.8728 33.8145 20.9502 34.1078C21.0277 34.4011 21.1859 34.6667 21.4068 34.8746L22.6703 36.0698L22.673 36.074L22.6735 36.0791L22.4052 37.7974C22.3584 38.0968 22.3964 38.4033 22.5147 38.6822C22.6331 38.9612 22.8271 39.2014 23.0749 39.3758C23.3227 39.5502 23.6143 39.6519 23.9168 39.6692C24.2194 39.6865 24.5207 39.6188 24.7867 39.4738L26.3138 38.6415ZM26.9321 37.4406C26.7359 37.3412 26.5185 37.291 26.2986 37.2943C26.0786 37.2976 25.8628 37.3544 25.6697 37.4597L24.1426 38.2919C24.097 38.3167 24.0455 38.3283 23.9937 38.3253C23.942 38.3224 23.8921 38.305 23.8497 38.2752C23.8073 38.2453 23.7741 38.2042 23.7539 38.1565C23.7336 38.1088 23.7271 38.0563 23.7351 38.0051L24.0034 36.2867C24.0373 36.0694 24.0179 35.8471 23.9468 35.639C23.8757 35.4308 23.7551 35.2431 23.5953 35.0919L22.3318 33.8968C22.2942 33.8612 22.2672 33.8157 22.254 33.7656C22.2408 33.7154 22.242 33.6626 22.2572 33.613C22.2725 33.5635 22.3014 33.5192 22.3405 33.4852C22.3796 33.4512 22.4275 33.4288 22.4787 33.4206L24.1957 33.1447C24.4129 33.1098 24.6184 33.0226 24.7944 32.8907C24.9704 32.7587 25.1117 32.586 25.2061 32.3873L25.9522 30.8163C25.9745 30.7695 26.0094 30.7299 26.053 30.7019C26.0967 30.6738 26.1472 30.6586 26.1991 30.6578C26.2509 30.657 26.3019 30.6708 26.3464 30.6975C26.3908 30.7242 26.4269 30.7628 26.4505 30.8089L27.2435 32.3567C27.3437 32.5525 27.4901 32.721 27.67 32.8476C27.8499 32.9742 28.0579 33.0552 28.276 33.0835L30.0006 33.3078C30.052 33.3145 30.1005 33.3354 30.1407 33.3682C30.1808 33.401 30.211 33.4444 30.2278 33.4935C30.2445 33.5426 30.2472 33.5953 30.2356 33.6459C30.2239 33.6964 30.1983 33.7426 30.1617 33.7794L28.9347 35.0118C28.7795 35.1677 28.6645 35.359 28.5997 35.5692C28.5348 35.7794 28.5221 36.0022 28.5626 36.2184L28.8822 37.9279C28.8917 37.9789 28.8868 38.0315 28.868 38.0798C28.8491 38.1281 28.8172 38.1702 28.7757 38.2013C28.7343 38.2324 28.6849 38.2513 28.6333 38.2558C28.5816 38.2603 28.5298 38.2503 28.4835 38.2269L26.9321 37.4406Z" fill="black"/>
</svg>
