<svg width="24" height="24" viewBox="0 0 24 24" fill="none" xmlns="http://www.w3.org/2000/svg">
<path fill-rule="evenodd" clip-rule="evenodd" d="M19.6082 16.5674C19.0852 17.0981 18.2381 17.0981 17.715 16.5674L11.5173 10.2802L5.3196 16.5674C5.19696 16.7009 5.04907 16.808 4.88475 16.8823C4.72043 16.9566 4.54305 16.9966 4.36319 16.9998C4.18333 17.003 4.00467 16.9694 3.83787 16.9011C3.67107 16.8327 3.51955 16.731 3.39235 16.6019C3.26514 16.4728 3.16487 16.3191 3.09749 16.1499C3.03012 15.9806 2.99703 15.7993 3.00021 15.6168C3.00338 15.4343 3.04275 15.2544 3.11596 15.0876C3.18918 14.9209 3.29474 14.7709 3.42635 14.6464L10.5707 7.3975C10.8218 7.14297 11.1623 7 11.5173 7C11.8723 7 12.2127 7.14297 12.4639 7.3975L19.6082 14.6464C19.8591 14.9013 20 15.2467 20 15.6069C20 15.9671 19.8591 16.3126 19.6082 16.5674Z" fill="white"/>
</svg>
