<svg width="24" height="24" viewBox="0 0 24 24" fill="none" xmlns="http://www.w3.org/2000/svg">
<path d="M8.5 12.5L7 17L12 15C13.6667 13.1667 17.6 8.89997 20 6.49997C22.4 4.09997 19 2.49991 17.5 3.99997L8.5 12.5Z" fill="#03DAC5"/>
<path d="M21.75 12V21C21.75 21.1989 21.671 21.3897 21.5303 21.5303C21.3897 21.671 21.1989 21.75 21 21.75H3C2.80109 21.75 2.61032 21.671 2.46967 21.5303C2.32902 21.3897 2.25 21.1989 2.25 21V3C2.25 2.80109 2.32902 2.61032 2.46967 2.46967C2.61032 2.32902 2.80109 2.25 3 2.25H12C12.1989 2.25 12.3897 2.32902 12.5303 2.46967C12.671 2.61032 12.75 2.80109 12.75 3C12.75 3.19891 12.671 3.38968 12.5303 3.53033C12.3897 3.67098 12.1989 3.75 12 3.75H3.75V20.25H20.25V12C20.25 11.8011 20.329 11.6103 20.4697 11.4697C20.6103 11.329 20.8011 11.25 21 11.25C21.1989 11.25 21.3897 11.329 21.5303 11.4697C21.671 11.6103 21.75 11.8011 21.75 12ZM7.845 12.0975L16.7175 3.2175C17.2566 2.67845 17.9877 2.37561 18.75 2.37561C19.5123 2.37561 20.2434 2.67845 20.7825 3.2175C21.3216 3.75655 21.6244 4.48766 21.6244 5.25C21.6244 6.01234 21.3216 6.74345 20.7825 7.2825L11.9025 16.155C11.8224 16.2358 11.7249 16.2974 11.6175 16.335L6.9975 17.955C6.91812 17.9838 6.83444 17.999 6.75 18C6.63049 17.9995 6.51283 17.9705 6.40681 17.9153C6.30079 17.8602 6.20949 17.7805 6.14051 17.6829C6.07154 17.5853 6.02688 17.4726 6.01027 17.3543C5.99365 17.2359 6.00556 17.1153 6.045 17.0025L7.665 12.3825C7.7026 12.2751 7.76415 12.1776 7.845 12.0975ZM7.9725 16.0275L10.9725 14.9775L19.7175 6.2175C19.9741 5.9609 20.1183 5.61288 20.1183 5.25C20.1183 4.88712 19.9741 4.5391 19.7175 4.2825C19.4609 4.0259 19.1129 3.88175 18.75 3.88175C18.3871 3.88175 18.0391 4.0259 17.7825 4.2825L9 13.035L7.9725 16.0275Z" fill="white"/>
</svg>
